<svg xmlns="http://www.w3.org/2000/svg" version="1.1" xmlns:xlink="http://www.w3.org/1999/xlink" xmlns:svgjs="http://svgjs.com/svgjs" width="400" height="400"><svg id="SvgjsSvg1003" version="1.1" xmlns="http://www.w3.org/2000/svg" xmlns:xlink="http://www.w3.org/1999/xlink" width="400" height="400" viewBox="0, 0, 400,400"><g id="SvgjsG1002"><path id="SvgjsPath1001" d="M260.800 72.799 C 255.761 72.993,252.634 73.304,251.000 73.772 C 249.680 74.150,246.384 74.620,243.675 74.816 C 237.561 75.259,236.264 75.472,233.997 76.400 C 233.006 76.806,230.306 77.346,227.997 77.599 C 225.179 77.909,223.383 78.318,222.530 78.844 C 221.759 79.320,219.971 79.775,217.977 80.003 C 212.662 80.609,212.026 81.563,212.736 87.863 C 213.311 92.975,215.335 95.182,218.120 93.735 C 218.824 93.369,220.953 92.837,222.852 92.553 C 224.750 92.270,227.057 91.645,227.977 91.165 C 229.158 90.550,230.793 90.201,233.526 89.981 C 237.382 89.670,239.038 89.355,239.800 88.786 C 240.549 88.226,244.589 87.660,249.599 87.413 C 252.410 87.274,255.932 86.826,257.644 86.389 C 263.739 84.833,285.655 84.949,290.400 86.563 C 291.390 86.899,294.665 87.337,297.677 87.535 C 302.137 87.828,303.473 88.064,304.877 88.803 C 305.913 89.349,307.746 89.826,309.474 90.000 C 311.346 90.188,313.045 90.653,314.350 91.336 C 315.452 91.912,317.060 92.496,317.925 92.634 C 318.789 92.773,319.971 93.294,320.552 93.792 C 321.132 94.291,322.280 94.807,323.103 94.939 C 323.927 95.071,325.584 95.814,326.787 96.590 C 327.989 97.365,329.173 98.000,329.417 98.000 C 329.661 98.000,330.283 98.450,330.800 99.000 C 331.317 99.550,332.051 100.000,332.432 100.000 C 333.071 100.000,334.809 101.222,337.800 103.774 C 338.460 104.338,339.802 105.474,340.783 106.299 C 343.816 108.853,350.000 115.842,350.000 116.716 C 350.000 116.914,350.354 117.396,350.786 117.787 C 351.218 118.178,351.885 119.331,352.269 120.349 C 352.653 121.367,353.469 123.000,354.083 123.978 C 354.698 124.956,355.200 126.111,355.200 126.543 C 355.200 126.976,355.631 128.066,356.158 128.965 C 356.732 129.945,357.308 131.883,357.596 133.800 C 357.861 135.560,358.510 137.950,359.039 139.112 C 360.550 142.431,360.531 162.579,359.014 165.572 C 358.472 166.642,357.836 168.751,357.601 170.258 C 357.365 171.766,356.818 173.488,356.385 174.085 C 355.952 174.682,355.400 176.095,355.158 177.224 C 354.892 178.462,354.351 179.596,353.796 180.079 C 353.289 180.519,352.760 181.487,352.621 182.228 C 352.482 182.970,351.937 184.089,351.410 184.715 C 350.883 185.341,350.151 186.606,349.783 187.527 C 349.414 188.447,348.980 189.200,348.817 189.200 C 348.655 189.200,348.196 189.921,347.799 190.802 C 347.402 191.684,346.810 192.626,346.484 192.897 C 346.157 193.167,345.549 194.185,345.132 195.159 C 344.714 196.133,344.019 197.237,343.586 197.612 C 343.154 197.987,342.800 198.422,342.800 198.579 C 342.800 198.736,342.170 199.814,341.400 200.974 C 340.630 202.134,340.000 203.216,340.000 203.378 C 340.000 203.540,339.370 204.409,338.600 205.308 C 337.830 206.208,337.200 207.182,337.200 207.472 C 337.200 207.762,337.023 208.000,336.807 208.000 C 336.590 208.000,335.957 208.901,335.399 210.001 C 334.842 211.102,334.029 212.225,333.593 212.497 C 333.157 212.770,332.798 213.174,332.796 213.396 C 332.794 213.618,332.164 214.590,331.396 215.556 C 330.628 216.522,330.000 217.488,330.000 217.701 C 330.000 218.082,329.108 219.269,326.500 222.357 C 325.785 223.204,325.198 224.055,325.196 224.248 C 325.194 224.442,324.564 225.390,323.796 226.356 C 323.028 227.322,322.400 228.267,322.400 228.456 C 322.400 228.645,322.085 229.121,321.700 229.513 C 320.719 230.513,318.784 233.001,317.600 234.786 C 317.050 235.615,316.079 237.082,315.442 238.047 C 314.805 239.011,314.065 239.930,313.798 240.088 C 313.531 240.247,312.286 241.867,311.030 243.688 C 307.533 248.759,306.797 249.755,306.327 250.045 C 306.089 250.192,305.423 251.027,304.847 251.900 C 302.332 255.714,301.359 257.033,300.702 257.523 C 300.316 257.810,300.000 258.295,300.000 258.600 C 300.000 258.905,299.669 259.390,299.264 259.677 C 298.859 259.965,298.056 260.950,297.480 261.866 C 296.904 262.783,296.257 263.641,296.042 263.774 C 295.177 264.309,294.395 266.566,294.634 267.838 C 295.373 271.779,308.045 270.566,310.228 266.346 C 310.543 265.738,311.031 265.096,311.313 264.920 C 311.595 264.744,312.662 263.430,313.684 262.000 C 314.705 260.570,315.908 258.995,316.357 258.500 C 316.805 258.004,317.389 257.194,317.653 256.700 C 317.917 256.205,318.598 255.308,319.167 254.707 C 321.645 252.086,322.125 251.459,324.885 247.246 C 325.577 246.191,326.879 244.605,328.900 242.361 C 329.505 241.688,330.000 241.054,330.000 240.950 C 330.000 240.504,333.479 235.756,334.300 235.082 C 334.795 234.675,335.200 234.113,335.200 233.833 C 335.200 233.553,335.579 232.981,336.043 232.562 C 336.506 232.143,337.207 231.170,337.600 230.400 C 337.993 229.630,338.694 228.657,339.157 228.238 C 339.621 227.819,340.000 227.301,340.000 227.086 C 340.000 226.872,340.585 226.018,341.300 225.188 C 343.096 223.103,344.959 220.413,345.516 219.100 C 345.773 218.495,346.163 218.000,346.383 218.000 C 346.604 218.000,347.134 217.313,347.563 216.473 C 347.991 215.634,348.640 214.699,349.005 214.396 C 349.370 214.093,349.943 213.160,350.278 212.323 C 350.613 211.485,351.043 210.800,351.233 210.800 C 351.424 210.800,351.879 210.215,352.245 209.500 C 352.611 208.785,353.426 207.609,354.055 206.886 C 354.685 206.163,355.200 205.322,355.200 205.017 C 355.200 204.711,355.625 203.953,356.144 203.331 C 356.663 202.709,357.402 201.587,357.786 200.838 C 358.171 200.088,358.826 199.109,359.243 198.662 C 359.659 198.215,360.000 197.529,360.000 197.138 C 360.000 196.748,360.528 195.827,361.173 195.092 C 361.818 194.358,362.477 193.226,362.638 192.578 C 362.800 191.930,363.421 190.770,364.019 190.000 C 364.617 189.230,365.229 188.072,365.379 187.427 C 365.529 186.782,366.065 185.763,366.569 185.164 C 367.073 184.565,367.599 183.365,367.738 182.497 C 367.877 181.630,368.375 180.432,368.844 179.835 C 369.421 179.101,369.797 177.853,370.001 175.989 C 370.168 174.471,370.688 172.493,371.156 171.594 C 373.454 167.185,373.504 136.328,371.219 132.631 C 370.794 131.943,370.264 130.250,370.042 128.868 C 369.819 127.485,369.293 125.780,368.872 125.077 C 368.451 124.375,367.887 122.630,367.619 121.200 C 367.351 119.770,366.817 118.240,366.432 117.800 C 366.048 117.360,365.419 116.146,365.034 115.102 C 364.650 114.058,364.103 113.068,363.820 112.902 C 363.536 112.736,362.876 111.822,362.352 110.870 C 358.682 104.203,358.231 103.653,350.304 96.200 C 344.575 90.814,343.592 90.000,342.818 90.000 C 342.429 90.000,341.431 89.460,340.600 88.800 C 339.769 88.140,338.876 87.600,338.615 87.600 C 338.354 87.600,337.255 86.970,336.172 86.200 C 335.089 85.430,333.918 84.800,333.571 84.800 C 333.224 84.800,332.534 84.368,332.038 83.841 C 331.494 83.261,330.470 82.781,329.451 82.629 C 328.523 82.489,326.693 81.842,325.382 81.189 C 324.072 80.537,322.502 80.002,321.892 80.002 C 321.283 80.001,319.825 79.488,318.651 78.861 C 317.235 78.106,315.606 77.629,313.811 77.445 C 312.323 77.293,310.402 76.809,309.543 76.371 C 308.474 75.826,306.265 75.393,302.549 75.002 C 299.562 74.687,296.902 74.251,296.640 74.033 C 295.320 72.938,275.191 72.245,260.800 72.799 M37.949 83.461 C 37.024 84.576,36.935 325.844,37.859 326.866 C 38.625 327.711,47.764 327.969,49.226 327.186 C 49.989 326.778,50.000 324.992,50.000 205.768 L 50.000 84.764 49.018 83.782 C 47.745 82.508,38.951 82.254,37.949 83.461 M59.325 83.203 C 58.784 83.421,58.288 84.137,58.027 85.078 C 57.359 87.483,57.448 325.075,58.117 326.400 C 58.747 327.646,68.267 328.170,69.809 327.043 C 70.986 326.182,71.067 85.678,69.891 83.882 C 69.140 82.737,61.674 82.257,59.325 83.203 M80.109 83.882 C 79.435 84.912,79.395 90.886,79.298 205.672 L 79.196 326.379 80.178 327.023 C 81.461 327.863,90.687 327.726,91.740 326.851 C 92.526 326.197,92.779 87.981,91.997 85.164 C 91.444 83.176,90.362 82.800,85.190 82.800 C 80.880 82.800,80.809 82.815,80.109 83.882 M100.962 83.642 C 99.878 84.839,99.546 325.889,100.627 326.969 C 101.589 327.932,196.009 327.934,196.971 326.971 C 198.213 325.730,197.786 315.985,196.461 315.328 C 196.097 315.147,177.170 314.910,154.400 314.800 L 113.000 314.600 112.882 311.652 C 112.682 306.678,107.763 307.200,154.818 307.200 C 202.913 307.200,197.329 308.020,197.539 300.929 C 197.665 296.653,197.600 296.088,196.875 295.193 L 196.071 294.200 154.895 294.089 L 113.719 293.978 113.259 292.970 C 112.649 291.631,112.664 286.696,113.280 286.080 C 113.647 285.713,123.234 285.599,153.980 285.598 C 196.486 285.595,196.990 285.574,197.441 283.779 C 197.887 282.002,197.436 274.166,196.847 273.456 C 196.348 272.856,192.804 272.799,155.251 272.787 C 121.845 272.777,114.070 272.676,113.503 272.246 C 112.845 271.746,112.801 266.540,112.703 177.920 C 112.617 99.119,112.512 84.017,112.051 83.461 C 111.127 82.348,101.998 82.497,100.962 83.642 M261.879 93.224 C 259.942 93.396,257.782 93.738,257.079 93.985 C 256.375 94.232,253.038 94.601,249.662 94.806 C 242.537 95.238,241.176 95.447,239.000 96.441 C 238.084 96.859,235.523 97.358,233.010 97.608 C 229.923 97.916,228.240 98.281,227.337 98.839 C 226.595 99.297,224.815 99.777,223.126 99.974 C 218.059 100.564,215.784 102.332,216.724 104.949 C 216.972 105.637,217.355 107.809,217.578 109.776 C 218.125 114.622,220.578 116.137,224.119 113.816 C 224.732 113.415,226.711 112.868,228.517 112.600 C 230.322 112.333,232.677 111.714,233.749 111.225 C 235.111 110.603,236.977 110.234,239.949 109.998 C 242.489 109.797,245.144 109.319,246.545 108.811 C 252.917 106.502,291.103 106.644,297.362 109.000 C 298.823 109.550,300.779 110.001,301.709 110.002 C 302.779 110.002,304.275 110.439,305.782 111.189 C 307.093 111.842,308.923 112.489,309.851 112.628 C 310.778 112.768,311.915 113.234,312.378 113.665 C 312.840 114.096,314.093 114.708,315.161 115.026 C 316.230 115.343,317.331 115.875,317.607 116.209 C 317.884 116.542,318.760 117.115,319.555 117.482 C 322.264 118.733,329.988 125.506,329.997 126.638 C 329.999 126.879,330.378 127.418,330.841 127.837 C 331.303 128.256,331.960 129.139,332.299 129.799 C 332.639 130.460,333.430 131.626,334.058 132.391 C 334.837 133.340,335.200 134.233,335.200 135.198 C 335.200 136.053,335.600 137.203,336.209 138.099 C 336.938 139.172,337.333 140.499,337.634 142.891 C 338.105 146.622,338.599 149.662,339.213 152.600 C 339.666 154.770,339.407 157.795,338.599 159.761 C 338.319 160.442,337.867 162.350,337.594 164.000 C 337.255 166.047,336.796 167.359,336.149 168.131 C 335.627 168.753,335.195 169.743,335.189 170.331 C 335.183 170.919,334.653 172.093,334.012 172.941 C 333.370 173.788,332.738 174.971,332.607 175.569 C 332.475 176.167,331.835 177.240,331.184 177.953 C 330.533 178.666,330.000 179.569,330.000 179.960 C 330.000 180.351,329.543 181.285,328.984 182.036 C 326.886 184.854,325.990 186.248,325.233 187.872 C 324.804 188.791,324.081 189.743,323.626 189.986 C 323.172 190.229,322.798 190.647,322.796 190.914 C 322.794 191.181,322.188 192.160,321.449 193.089 C 320.710 194.019,319.880 195.324,319.604 195.989 C 319.329 196.655,318.949 197.200,318.762 197.200 C 318.574 197.200,318.122 197.785,317.756 198.500 C 317.391 199.215,316.844 199.945,316.541 200.122 C 316.238 200.300,315.535 201.343,314.979 202.441 C 314.423 203.539,313.705 204.538,313.384 204.662 C 313.063 204.785,312.800 205.104,312.800 205.371 C 312.800 205.638,312.170 206.592,311.400 207.492 C 310.630 208.391,310.000 209.292,310.000 209.494 C 310.000 209.696,309.564 210.270,309.032 210.770 C 308.500 211.270,307.842 212.215,307.571 212.870 C 307.300 213.525,306.610 214.575,306.039 215.205 C 304.407 217.001,302.971 218.894,302.248 220.200 C 301.883 220.860,300.959 222.210,300.196 223.200 C 299.432 224.190,298.498 225.450,298.121 226.000 C 297.744 226.550,296.932 227.591,296.318 228.314 C 295.703 229.037,295.200 229.854,295.200 230.131 C 295.200 230.407,294.615 231.291,293.900 232.096 C 291.622 234.659,287.200 240.905,287.200 241.561 C 287.200 241.755,286.938 242.015,286.617 242.138 C 286.296 242.261,285.571 243.045,285.005 243.881 C 284.440 244.716,283.538 246.030,283.001 246.800 C 282.464 247.570,281.614 248.804,281.112 249.542 C 280.611 250.280,279.652 251.540,278.982 252.342 C 277.696 253.881,276.716 255.256,275.400 257.371 C 274.473 258.861,272.960 260.864,271.766 262.183 C 268.912 265.336,268.380 268.355,270.485 269.444 C 272.459 270.465,280.797 270.109,282.068 268.950 C 282.581 268.482,283.405 267.891,283.900 267.636 C 284.395 267.381,284.800 266.927,284.800 266.628 C 284.800 266.329,285.258 265.660,285.819 265.142 C 286.379 264.624,287.215 263.480,287.676 262.600 C 288.138 261.720,288.849 260.765,289.258 260.477 C 289.666 260.190,290.000 259.762,290.000 259.526 C 290.000 259.116,291.053 257.763,293.900 254.516 C 294.615 253.701,295.200 252.808,295.200 252.533 C 295.200 252.258,295.648 251.530,296.195 250.916 C 298.565 248.255,300.000 246.483,300.000 246.215 C 300.000 246.057,300.630 245.191,301.400 244.292 C 302.170 243.392,302.800 242.488,302.800 242.283 C 302.800 241.884,304.294 239.921,306.112 237.932 C 306.723 237.263,307.493 236.194,307.822 235.558 C 308.151 234.921,308.575 234.400,308.765 234.400 C 308.954 234.400,309.393 233.802,309.739 233.072 C 310.086 232.341,310.914 231.126,311.578 230.372 C 312.243 229.617,312.790 228.841,312.794 228.647 C 312.797 228.453,313.196 227.950,313.681 227.530 C 314.514 226.807,315.134 225.923,317.000 222.792 C 317.440 222.054,318.192 221.039,318.671 220.536 C 319.150 220.033,319.864 219.077,320.257 218.411 C 320.651 217.745,321.111 217.200,321.280 217.200 C 321.448 217.200,322.020 216.345,322.550 215.300 C 323.080 214.255,323.893 213.057,324.357 212.638 C 324.821 212.219,325.200 211.665,325.200 211.408 C 325.200 211.150,325.667 210.503,326.238 209.970 C 326.809 209.436,327.548 208.477,327.881 207.838 C 328.213 207.198,328.826 206.309,329.243 205.862 C 329.659 205.415,330.000 204.858,330.000 204.625 C 330.000 204.391,330.630 203.492,331.400 202.627 C 332.170 201.762,332.800 200.845,332.800 200.589 C 332.800 200.333,333.148 199.809,333.574 199.423 C 334.000 199.038,334.724 197.923,335.184 196.945 C 335.643 195.967,336.269 195.072,336.573 194.955 C 336.878 194.838,337.356 194.170,337.636 193.471 C 337.917 192.772,338.563 191.691,339.073 191.069 C 339.583 190.447,340.000 189.715,340.000 189.441 C 340.000 189.168,340.530 188.350,341.179 187.624 C 341.827 186.897,342.463 185.825,342.591 185.240 C 342.720 184.656,343.342 183.571,343.974 182.831 C 344.606 182.090,345.230 180.952,345.360 180.302 C 345.490 179.652,346.024 178.611,346.548 177.989 C 347.072 177.366,347.628 176.175,347.785 175.341 C 347.941 174.507,348.504 173.083,349.035 172.177 C 349.566 171.271,350.000 170.071,350.000 169.510 C 350.000 168.950,350.495 167.076,351.100 165.346 C 352.750 160.626,352.728 145.878,351.063 141.230 C 350.479 139.597,350.000 137.509,350.000 136.590 C 350.000 135.598,349.613 134.191,349.046 133.125 C 348.522 132.139,347.965 130.717,347.810 129.966 C 347.654 129.215,347.129 127.970,346.642 127.200 C 346.155 126.430,345.437 124.945,345.045 123.900 C 344.654 122.855,344.202 122.000,344.041 122.000 C 343.879 122.000,343.326 121.235,342.811 120.300 C 342.296 119.365,341.588 118.297,341.237 117.927 C 340.887 117.557,339.796 116.297,338.814 115.127 C 335.634 111.339,327.394 104.800,325.800 104.800 C 325.538 104.800,325.004 104.447,324.614 104.015 C 324.223 103.583,323.250 103.024,322.452 102.772 C 321.653 102.520,320.364 101.886,319.588 101.363 C 318.811 100.840,317.191 100.228,315.988 100.002 C 314.784 99.776,313.312 99.233,312.716 98.795 C 312.058 98.313,310.407 97.825,308.516 97.555 C 306.802 97.311,304.810 96.774,304.089 96.362 C 302.327 95.356,298.678 94.809,293.600 94.790 C 289.419 94.774,287.636 94.590,280.400 93.426 C 276.361 92.776,267.959 92.684,261.879 93.224 M260.400 115.266 C 256.654 115.463,251.551 116.030,248.600 116.578 C 245.740 117.109,242.273 117.655,240.896 117.792 C 239.519 117.929,237.449 118.480,236.296 119.016 C 234.965 119.636,233.470 119.994,232.200 119.998 C 230.079 120.005,227.774 120.505,225.800 121.388 C 225.140 121.683,223.833 122.150,222.895 122.427 C 220.515 123.129,220.170 123.651,220.726 125.717 C 220.974 126.643,221.602 129.020,222.119 131.000 L 223.061 134.600 224.903 134.721 C 226.235 134.808,227.278 134.573,228.672 133.872 C 229.813 133.298,231.743 132.784,233.400 132.612 C 234.940 132.452,237.550 131.870,239.200 131.320 C 241.305 130.617,243.691 130.214,247.200 129.967 C 252.099 129.622,253.370 129.401,256.600 128.330 C 259.761 127.283,286.011 127.604,289.200 128.729 C 290.630 129.234,293.095 129.795,294.677 129.977 C 296.345 130.168,298.111 130.646,298.877 131.115 C 299.605 131.559,301.010 132.150,302.000 132.428 C 302.990 132.707,304.250 133.334,304.800 133.822 C 305.350 134.311,306.191 134.828,306.668 134.972 C 307.146 135.116,308.214 135.855,309.043 136.614 C 309.871 137.372,310.876 138.097,311.275 138.224 C 311.674 138.350,312.002 138.667,312.004 138.927 C 312.007 139.187,312.725 140.300,313.600 141.400 C 314.475 142.500,315.193 143.673,315.196 144.007 C 315.198 144.341,315.683 145.326,316.274 146.195 C 318.541 149.530,318.479 162.564,316.185 165.291 C 315.643 165.935,315.200 166.819,315.200 167.257 C 315.200 168.226,314.507 169.592,313.605 170.400 C 313.236 170.730,312.729 171.598,312.478 172.330 C 312.226 173.061,311.566 174.200,311.010 174.861 C 310.455 175.521,310.000 176.290,310.000 176.569 C 310.000 176.848,309.625 177.415,309.167 177.830 C 308.709 178.245,308.079 179.193,307.768 179.938 C 307.457 180.682,306.707 181.900,306.101 182.643 C 303.545 185.781,302.913 186.677,302.256 188.100 C 301.874 188.925,301.409 189.600,301.221 189.600 C 301.033 189.600,300.504 190.185,300.046 190.900 C 299.587 191.615,298.658 192.920,297.982 193.800 C 296.280 196.013,295.701 196.812,294.792 198.200 C 294.360 198.860,293.376 200.210,292.605 201.200 C 291.834 202.190,290.726 203.720,290.142 204.600 C 289.558 205.480,288.971 206.290,288.836 206.400 C 288.702 206.510,288.097 207.365,287.491 208.300 C 286.885 209.235,286.223 210.000,286.021 210.000 C 285.819 210.000,285.546 210.339,285.415 210.753 C 285.283 211.168,284.686 212.032,284.088 212.675 C 283.490 213.317,282.654 214.463,282.230 215.222 C 281.807 215.980,281.348 216.690,281.211 216.800 C 281.074 216.910,280.529 217.630,280.000 218.400 C 279.471 219.170,278.908 219.892,278.749 220.005 C 278.466 220.206,275.335 224.465,273.510 227.130 C 273.010 227.862,271.970 229.244,271.200 230.203 C 268.878 233.092,267.200 235.457,267.200 235.840 C 267.200 236.040,266.670 236.702,266.023 237.313 C 265.376 237.924,264.734 238.779,264.596 239.212 C 264.459 239.645,264.181 240.000,263.979 240.000 C 263.777 240.000,263.114 240.765,262.506 241.700 C 261.899 242.635,261.175 243.639,260.898 243.931 C 260.621 244.223,260.198 244.831,259.956 245.281 C 259.353 246.408,256.903 249.597,255.750 250.755 C 255.228 251.280,254.800 251.927,254.800 252.193 C 254.800 252.458,254.422 253.018,253.959 253.437 C 253.497 253.856,252.840 254.739,252.500 255.399 C 252.160 256.060,251.561 256.960,251.169 257.400 C 242.763 266.828,242.617 270.002,250.589 269.998 C 256.751 269.994,257.428 269.681,261.500 264.945 C 262.215 264.113,262.800 263.228,262.800 262.979 C 262.800 262.729,263.179 262.181,263.643 261.762 C 264.106 261.343,264.830 260.325,265.251 259.500 C 265.672 258.675,266.178 258.000,266.376 258.000 C 266.573 258.000,267.146 257.325,267.649 256.500 C 268.152 255.675,268.887 254.765,269.282 254.477 C 269.677 254.190,270.000 253.729,270.000 253.453 C 270.000 253.177,270.338 252.588,270.752 252.144 C 271.165 251.700,271.980 250.631,272.563 249.769 C 274.650 246.680,275.632 245.390,276.365 244.772 C 276.775 244.427,277.497 243.437,277.971 242.572 C 279.015 240.667,280.231 238.978,281.700 237.394 C 282.305 236.742,282.800 235.992,282.800 235.727 C 282.800 235.462,283.134 235.010,283.542 234.723 C 283.951 234.435,284.674 233.435,285.151 232.500 C 285.627 231.565,286.189 230.800,286.400 230.800 C 286.611 230.800,287.140 230.102,287.575 229.249 C 288.010 228.396,288.630 227.597,288.953 227.473 C 289.275 227.350,289.844 226.607,290.215 225.824 C 290.587 225.041,291.047 224.400,291.237 224.400 C 291.428 224.400,291.974 223.636,292.450 222.701 C 292.927 221.767,293.553 220.822,293.843 220.601 C 294.132 220.381,294.823 219.570,295.378 218.800 C 296.512 217.227,299.088 213.547,300.000 212.197 C 300.330 211.709,301.410 210.272,302.400 209.005 C 303.390 207.738,304.560 206.049,305.000 205.251 C 305.440 204.453,306.011 203.664,306.269 203.498 C 306.527 203.331,307.149 202.521,307.651 201.698 C 308.153 200.874,308.887 199.965,309.282 199.677 C 309.677 199.390,310.000 198.964,310.000 198.731 C 310.000 198.498,310.630 197.449,311.400 196.400 C 312.170 195.351,312.800 194.302,312.800 194.069 C 312.800 193.836,313.124 193.410,313.519 193.123 C 314.357 192.514,316.388 189.695,317.641 187.400 C 318.122 186.520,318.849 185.565,319.258 185.277 C 319.666 184.990,320.000 184.487,320.000 184.159 C 320.000 183.832,320.469 183.095,321.042 182.522 C 321.615 181.949,322.273 180.922,322.505 180.240 C 322.737 179.558,323.438 178.409,324.063 177.686 C 324.688 176.963,325.200 176.134,325.200 175.842 C 325.200 175.550,325.641 174.662,326.180 173.867 C 326.720 173.073,327.431 171.625,327.762 170.651 C 328.093 169.676,328.731 168.276,329.180 167.540 C 329.630 166.803,329.998 165.705,329.999 165.100 C 329.999 164.495,330.283 162.361,330.629 160.358 C 331.200 157.046,331.200 156.272,330.629 151.841 C 330.283 149.160,330.000 146.280,330.000 145.441 C 330.000 144.602,329.576 143.073,329.059 142.042 C 328.541 141.012,327.885 139.456,327.601 138.584 C 327.317 137.713,326.660 136.491,326.142 135.869 C 325.624 135.247,325.200 134.474,325.200 134.151 C 325.200 132.877,314.293 122.800,312.914 122.800 C 312.487 122.800,311.311 122.253,310.302 121.584 C 309.197 120.852,307.569 120.223,306.208 120.001 C 304.965 119.799,303.375 119.281,302.674 118.849 C 301.973 118.418,300.000 117.872,298.289 117.635 C 296.578 117.399,294.439 116.828,293.537 116.368 C 290.732 114.937,275.980 114.446,260.400 115.266 M262.000 135.580 C 259.690 135.743,256.900 136.177,255.800 136.545 C 254.574 136.956,251.388 137.359,247.569 137.586 C 242.713 137.876,240.859 138.150,239.169 138.832 C 237.938 139.327,235.499 139.837,233.530 140.010 C 226.702 140.608,224.465 142.509,225.122 147.155 C 226.115 154.176,228.254 155.876,233.586 153.880 C 235.162 153.290,237.883 152.730,240.438 152.469 C 242.980 152.210,245.541 151.684,246.838 151.155 C 248.750 150.375,250.041 150.240,258.000 149.987 C 262.950 149.831,268.929 149.475,271.287 149.198 C 274.696 148.797,276.581 148.793,280.487 149.180 C 283.189 149.448,286.570 149.753,288.000 149.857 C 291.851 150.138,292.100 150.229,294.527 152.227 C 297.895 155.000,298.729 160.109,296.249 162.780 C 295.729 163.341,295.178 164.329,295.025 164.976 C 294.872 165.622,294.298 166.702,293.750 167.376 C 292.360 169.084,290.000 172.709,290.000 173.136 C 290.000 173.331,289.590 173.920,289.089 174.445 C 287.941 175.648,286.097 178.030,284.800 179.986 C 282.249 183.831,281.647 184.651,280.852 185.362 C 280.383 185.781,280.000 186.326,280.000 186.574 C 280.000 186.821,279.625 187.288,279.166 187.612 C 278.708 187.935,278.066 188.709,277.740 189.331 C 276.921 190.894,274.250 194.481,271.397 197.848 C 270.628 198.755,270.000 199.638,270.000 199.809 C 270.000 200.251,267.602 203.496,266.350 204.749 C 265.773 205.327,265.069 206.250,264.787 206.800 C 264.504 207.350,263.942 208.035,263.537 208.323 C 263.131 208.610,262.800 209.073,262.800 209.351 C 262.800 209.629,262.170 210.592,261.400 211.492 C 260.630 212.391,260.000 213.313,260.000 213.541 C 260.000 213.768,259.669 214.190,259.264 214.477 C 258.859 214.765,258.046 215.765,257.459 216.700 C 256.871 217.635,256.234 218.400,256.044 218.400 C 255.853 218.400,255.476 218.933,255.206 219.585 C 254.936 220.237,254.239 221.306,253.658 221.962 C 252.308 223.483,250.767 225.426,250.000 226.575 C 249.065 227.975,246.922 230.885,245.915 232.120 C 245.413 232.737,244.873 233.592,244.714 234.020 C 244.556 234.449,244.242 234.800,244.018 234.800 C 243.794 234.800,243.153 235.475,242.593 236.300 C 239.213 241.287,236.327 245.200,236.028 245.200 C 235.874 245.200,235.343 245.920,234.848 246.800 C 234.353 247.680,233.802 248.400,233.623 248.400 C 233.444 248.400,233.063 248.966,232.776 249.657 C 232.490 250.349,231.883 251.326,231.428 251.830 C 230.972 252.333,229.970 253.573,229.200 254.585 C 228.430 255.598,227.125 257.272,226.300 258.306 C 225.475 259.339,224.800 260.344,224.800 260.538 C 224.800 260.895,223.502 262.599,221.500 264.871 C 218.748 267.993,220.179 269.629,225.897 269.900 C 232.725 270.224,235.306 269.106,237.557 264.853 C 238.086 263.855,239.354 262.228,241.341 260.000 C 241.831 259.450,243.083 257.740,244.122 256.200 C 245.161 254.660,246.731 252.500,247.610 251.400 C 248.488 250.300,249.647 248.770,250.184 248.000 C 250.721 247.230,251.525 246.150,251.971 245.600 C 252.417 245.050,252.786 244.419,252.791 244.199 C 252.796 243.978,253.330 243.298,253.977 242.687 C 254.624 242.076,255.266 241.221,255.404 240.788 C 255.541 240.355,255.819 240.000,256.021 240.000 C 256.223 240.000,256.886 239.235,257.494 238.300 C 258.102 237.365,258.915 236.251,259.300 235.825 C 259.685 235.398,260.000 234.914,260.000 234.749 C 260.000 234.442,262.574 231.253,264.006 229.786 C 264.443 229.338,264.800 228.815,264.800 228.623 C 264.800 228.288,267.060 225.166,269.188 222.561 C 271.392 219.863,272.091 218.952,272.836 217.800 C 274.138 215.788,275.524 213.861,276.577 212.600 C 279.300 209.335,280.400 207.895,280.400 207.591 C 280.400 207.407,280.642 207.015,280.937 206.720 C 281.233 206.424,281.955 205.421,282.542 204.491 C 283.130 203.561,283.776 202.800,283.978 202.800 C 284.180 202.800,284.454 202.461,284.585 202.047 C 284.717 201.632,285.347 200.746,285.986 200.078 C 286.624 199.410,287.452 198.272,287.825 197.551 C 288.198 196.829,288.744 195.999,289.038 195.705 C 289.332 195.411,289.887 194.637,290.272 193.985 C 290.657 193.333,291.099 192.800,291.254 192.800 C 291.408 192.800,291.901 192.207,292.349 191.482 C 292.797 190.757,293.548 189.722,294.017 189.182 C 294.487 188.642,295.116 187.615,295.415 186.900 C 295.714 186.185,296.145 185.600,296.371 185.600 C 296.598 185.600,297.140 184.902,297.575 184.049 C 298.010 183.196,298.638 182.394,298.970 182.267 C 299.303 182.139,299.848 181.381,300.182 180.582 C 300.516 179.782,301.242 178.591,301.795 177.934 C 302.348 177.276,302.800 176.548,302.800 176.316 C 302.800 176.083,303.218 175.512,303.729 175.047 C 304.240 174.581,304.903 173.422,305.203 172.471 C 305.502 171.520,306.052 170.529,306.425 170.268 C 306.798 170.006,307.380 168.984,307.719 167.996 C 308.058 167.008,308.706 165.390,309.159 164.400 C 310.602 161.245,310.390 152.315,308.800 149.336 C 308.140 148.099,307.600 146.872,307.600 146.610 C 307.600 146.347,307.076 145.666,306.436 145.095 C 305.796 144.525,305.121 143.820,304.936 143.529 C 304.270 142.480,300.649 140.000,299.785 140.000 C 299.299 140.000,298.103 139.554,297.129 139.010 C 296.134 138.454,294.139 137.846,292.579 137.624 C 291.050 137.407,288.720 136.843,287.400 136.371 C 284.718 135.412,270.631 134.974,262.000 135.580 M216.891 273.292 C 215.679 273.876,215.548 274.605,215.684 279.965 L 215.800 284.530 217.200 285.035 C 219.849 285.989,358.749 285.783,359.900 284.823 C 361.065 283.851,361.279 275.262,360.177 273.689 L 359.555 272.800 288.677 272.827 C 238.204 272.846,217.538 272.980,216.891 273.292 M217.800 294.485 C 215.664 295.237,215.600 295.397,215.600 300.030 C 215.600 304.743,215.969 306.075,217.463 306.756 C 218.592 307.270,358.669 307.398,359.475 306.886 C 361.229 305.770,361.445 296.165,359.746 294.829 L 358.692 294.000 288.846 294.032 C 240.944 294.053,218.623 294.196,217.800 294.485 M217.800 315.285 C 215.583 316.065,215.569 316.109,215.689 321.741 C 215.799 326.932,215.806 326.967,216.800 327.243 C 219.153 327.896,358.969 327.637,359.911 326.977 C 361.398 325.936,361.266 316.825,359.746 315.629 L 358.692 314.800 288.846 314.832 C 240.944 314.853,218.623 314.996,217.800 315.285 " stroke="none" fill="#e6e4de" fill-rule="evenodd"></path><path id="SvgjsPath1000" d="M0.000 200.000 L 0.000 400.000 200.000 400.000 L 400.000 400.000 400.000 200.000 L 400.000 0.000 200.000 0.000 L 0.000 0.000 0.000 200.000 M292.581 73.239 C 294.550 73.457,296.377 73.815,296.640 74.033 C 296.902 74.251,299.562 74.687,302.549 75.002 C 306.265 75.393,308.474 75.826,309.543 76.371 C 310.402 76.809,312.323 77.293,313.811 77.445 C 315.606 77.629,317.235 78.106,318.651 78.861 C 319.825 79.488,321.283 80.001,321.892 80.002 C 322.502 80.002,324.072 80.537,325.382 81.189 C 326.693 81.842,328.523 82.489,329.451 82.629 C 330.470 82.781,331.494 83.261,332.038 83.841 C 332.534 84.368,333.224 84.800,333.571 84.800 C 333.918 84.800,335.089 85.430,336.172 86.200 C 337.255 86.970,338.354 87.600,338.615 87.600 C 338.876 87.600,339.769 88.140,340.600 88.800 C 341.431 89.460,342.429 90.000,342.818 90.000 C 343.592 90.000,344.575 90.814,350.304 96.200 C 358.231 103.653,358.682 104.203,362.352 110.870 C 362.876 111.822,363.536 112.736,363.820 112.902 C 364.103 113.068,364.650 114.058,365.034 115.102 C 365.419 116.146,366.048 117.360,366.432 117.800 C 366.817 118.240,367.351 119.770,367.619 121.200 C 367.887 122.630,368.451 124.375,368.872 125.077 C 369.293 125.780,369.819 127.485,370.042 128.868 C 370.264 130.250,370.794 131.943,371.219 132.631 C 373.504 136.328,373.454 167.185,371.156 171.594 C 370.688 172.493,370.168 174.471,370.001 175.989 C 369.797 177.853,369.421 179.101,368.844 179.835 C 368.375 180.432,367.877 181.630,367.738 182.497 C 367.599 183.365,367.073 184.565,366.569 185.164 C 366.065 185.763,365.529 186.782,365.379 187.427 C 365.229 188.072,364.617 189.230,364.019 190.000 C 363.421 190.770,362.800 191.930,362.638 192.578 C 362.477 193.226,361.818 194.358,361.173 195.092 C 360.528 195.827,360.000 196.748,360.000 197.138 C 360.000 197.529,359.659 198.215,359.243 198.662 C 358.826 199.109,358.171 200.088,357.786 200.838 C 357.402 201.587,356.663 202.709,356.144 203.331 C 355.625 203.953,355.200 204.711,355.200 205.017 C 355.200 205.322,354.685 206.163,354.055 206.886 C 353.426 207.609,352.611 208.785,352.245 209.500 C 351.879 210.215,351.424 210.800,351.233 210.800 C 351.043 210.800,350.613 211.485,350.278 212.323 C 349.943 213.160,349.370 214.093,349.005 214.396 C 348.640 214.699,347.991 215.634,347.563 216.473 C 347.134 217.313,346.604 218.000,346.383 218.000 C 346.163 218.000,345.773 218.495,345.516 219.100 C 344.959 220.413,343.096 223.103,341.300 225.188 C 340.585 226.018,340.000 226.872,340.000 227.086 C 340.000 227.301,339.621 227.819,339.157 228.238 C 338.694 228.657,337.993 229.630,337.600 230.400 C 337.207 231.170,336.506 232.143,336.043 232.562 C 335.579 232.981,335.200 233.553,335.200 233.833 C 335.200 234.113,334.795 234.675,334.300 235.082 C 333.479 235.756,330.000 240.504,330.000 240.950 C 330.000 241.054,329.505 241.688,328.900 242.361 C 326.879 244.605,325.577 246.191,324.885 247.246 C 322.125 251.459,321.645 252.086,319.167 254.707 C 318.598 255.308,317.917 256.205,317.653 256.700 C 317.389 257.194,316.805 258.004,316.357 258.500 C 315.908 258.995,314.705 260.570,313.684 262.000 C 312.662 263.430,311.595 264.744,311.313 264.920 C 311.031 265.096,310.543 265.738,310.228 266.346 C 308.045 270.566,295.373 271.779,294.634 267.838 C 294.395 266.566,295.177 264.309,296.042 263.774 C 296.257 263.641,296.904 262.783,297.480 261.866 C 298.056 260.950,298.859 259.965,299.264 259.677 C 299.669 259.390,300.000 258.905,300.000 258.600 C 300.000 258.295,300.316 257.810,300.702 257.523 C 301.359 257.033,302.332 255.714,304.847 251.900 C 305.423 251.027,306.089 250.192,306.327 250.045 C 306.797 249.755,307.533 248.759,311.030 243.688 C 312.286 241.867,313.531 240.247,313.798 240.088 C 314.065 239.930,314.805 239.011,315.442 238.047 C 316.079 237.082,317.050 235.615,317.600 234.786 C 318.784 233.001,320.719 230.513,321.700 229.513 C 322.085 229.121,322.400 228.645,322.400 228.456 C 322.400 228.267,323.028 227.322,323.796 226.356 C 324.564 225.390,325.194 224.442,325.196 224.248 C 325.198 224.055,325.785 223.204,326.500 222.357 C 329.108 219.269,330.000 218.082,330.000 217.701 C 330.000 217.488,330.628 216.522,331.396 215.556 C 332.164 214.590,332.794 213.618,332.796 213.396 C 332.798 213.174,333.157 212.770,333.593 212.497 C 334.029 212.225,334.842 211.102,335.399 210.001 C 335.957 208.901,336.590 208.000,336.807 208.000 C 337.023 208.000,337.200 207.762,337.200 207.472 C 337.200 207.182,337.830 206.208,338.600 205.308 C 339.370 204.409,340.000 203.540,340.000 203.378 C 340.000 203.216,340.630 202.134,341.400 200.974 C 342.170 199.814,342.800 198.736,342.800 198.579 C 342.800 198.422,343.154 197.987,343.586 197.612 C 344.019 197.237,344.714 196.133,345.132 195.159 C 345.549 194.185,346.157 193.167,346.484 192.897 C 346.810 192.626,347.402 191.684,347.799 190.802 C 348.196 189.921,348.655 189.200,348.817 189.200 C 348.980 189.200,349.414 188.447,349.783 187.527 C 350.151 186.606,350.883 185.341,351.410 184.715 C 351.937 184.089,352.482 182.970,352.621 182.228 C 352.760 181.487,353.289 180.519,353.796 180.079 C 354.351 179.596,354.892 178.462,355.158 177.224 C 355.400 176.095,355.952 174.682,356.385 174.085 C 356.818 173.488,357.365 171.766,357.601 170.258 C 357.836 168.751,358.472 166.642,359.014 165.572 C 360.531 162.579,360.550 142.431,359.039 139.112 C 358.510 137.950,357.861 135.560,357.596 133.800 C 357.308 131.883,356.732 129.945,356.158 128.965 C 355.631 128.066,355.200 126.976,355.200 126.543 C 355.200 126.111,354.698 124.956,354.083 123.978 C 353.469 123.000,352.653 121.367,352.269 120.349 C 351.885 119.331,351.218 118.178,350.786 117.787 C 350.354 117.396,350.000 116.914,350.000 116.716 C 350.000 115.842,343.816 108.853,340.783 106.299 C 339.802 105.474,338.460 104.338,337.800 103.774 C 334.809 101.222,333.071 100.000,332.432 100.000 C 332.051 100.000,331.317 99.550,330.800 99.000 C 330.283 98.450,329.661 98.000,329.417 98.000 C 329.173 98.000,327.989 97.365,326.787 96.590 C 325.584 95.814,323.927 95.071,323.103 94.939 C 322.280 94.807,321.132 94.291,320.552 93.792 C 319.971 93.294,318.789 92.773,317.925 92.634 C 317.060 92.496,315.452 91.912,314.350 91.336 C 313.045 90.653,311.346 90.188,309.474 90.000 C 307.746 89.826,305.913 89.349,304.877 88.803 C 303.473 88.064,302.137 87.828,297.677 87.535 C 294.665 87.337,291.390 86.899,290.400 86.563 C 285.655 84.949,263.739 84.833,257.644 86.389 C 255.932 86.826,252.410 87.274,249.599 87.413 C 244.589 87.660,240.549 88.226,239.800 88.786 C 239.038 89.355,237.382 89.670,233.526 89.981 C 230.793 90.201,229.158 90.550,227.977 91.165 C 227.057 91.645,224.750 92.270,222.852 92.553 C 220.953 92.837,218.824 93.369,218.120 93.735 C 215.335 95.182,213.311 92.975,212.736 87.863 C 212.026 81.563,212.662 80.609,217.977 80.003 C 219.971 79.775,221.759 79.320,222.530 78.844 C 223.383 78.318,225.179 77.909,227.997 77.599 C 230.306 77.346,233.006 76.806,233.997 76.400 C 236.264 75.472,237.561 75.259,243.675 74.816 C 246.384 74.620,249.680 74.150,251.000 73.772 C 255.339 72.529,282.974 72.175,292.581 73.239 M49.018 83.782 L 50.000 84.764 50.000 205.768 C 50.000 324.992,49.989 326.778,49.226 327.186 C 47.764 327.969,38.625 327.711,37.859 326.866 C 36.935 325.844,37.024 84.576,37.949 83.461 C 38.951 82.254,47.745 82.508,49.018 83.782 M69.891 83.882 C 71.067 85.678,70.986 326.182,69.809 327.043 C 68.267 328.170,58.747 327.646,58.117 326.400 C 57.448 325.075,57.359 87.483,58.027 85.078 C 58.581 83.084,59.256 82.856,64.691 82.825 C 69.143 82.800,69.188 82.809,69.891 83.882 M90.580 83.264 C 91.232 83.561,91.741 84.244,91.997 85.164 C 92.779 87.981,92.526 326.197,91.740 326.851 C 90.687 327.726,81.461 327.863,80.178 327.023 L 79.196 326.379 79.298 205.672 C 79.395 90.886,79.435 84.912,80.109 83.882 C 80.904 82.669,88.314 82.231,90.580 83.264 M112.051 83.461 C 112.512 84.017,112.617 99.119,112.703 177.920 C 112.801 266.540,112.845 271.746,113.503 272.246 C 114.070 272.676,121.845 272.777,155.251 272.787 C 192.804 272.799,196.348 272.856,196.847 273.456 C 197.436 274.166,197.887 282.002,197.441 283.779 C 196.990 285.574,196.486 285.595,153.980 285.598 C 123.234 285.599,113.647 285.713,113.280 286.080 C 112.664 286.696,112.649 291.631,113.259 292.970 L 113.719 293.978 154.895 294.089 L 196.071 294.200 196.875 295.193 C 197.600 296.088,197.665 296.653,197.539 300.929 C 197.329 308.020,202.913 307.200,154.818 307.200 C 107.763 307.200,112.682 306.678,112.882 311.652 L 113.000 314.600 154.400 314.800 C 177.170 314.910,196.097 315.147,196.461 315.328 C 197.786 315.985,198.213 325.730,196.971 326.971 C 196.009 327.934,101.589 327.932,100.627 326.969 C 99.546 325.889,99.878 84.839,100.962 83.642 C 101.998 82.497,111.127 82.348,112.051 83.461 M280.400 93.426 C 287.636 94.590,289.419 94.774,293.600 94.790 C 298.678 94.809,302.327 95.356,304.089 96.362 C 304.810 96.774,306.802 97.311,308.516 97.555 C 310.407 97.825,312.058 98.313,312.716 98.795 C 313.312 99.233,314.784 99.776,315.988 100.002 C 317.191 100.228,318.811 100.840,319.588 101.363 C 320.364 101.886,321.653 102.520,322.452 102.772 C 323.250 103.024,324.223 103.583,324.614 104.015 C 325.004 104.447,325.538 104.800,325.800 104.800 C 327.394 104.800,335.634 111.339,338.814 115.127 C 339.796 116.297,340.887 117.557,341.237 117.927 C 341.588 118.297,342.296 119.365,342.811 120.300 C 343.326 121.235,343.879 122.000,344.041 122.000 C 344.202 122.000,344.654 122.855,345.045 123.900 C 345.437 124.945,346.155 126.430,346.642 127.200 C 347.129 127.970,347.654 129.215,347.810 129.966 C 347.965 130.717,348.522 132.139,349.046 133.125 C 349.613 134.191,350.000 135.598,350.000 136.590 C 350.000 137.509,350.479 139.597,351.063 141.230 C 352.728 145.878,352.750 160.626,351.100 165.346 C 350.495 167.076,350.000 168.950,350.000 169.510 C 350.000 170.071,349.566 171.271,349.035 172.177 C 348.504 173.083,347.941 174.507,347.785 175.341 C 347.628 176.175,347.072 177.366,346.548 177.989 C 346.024 178.611,345.490 179.652,345.360 180.302 C 345.230 180.952,344.606 182.090,343.974 182.831 C 343.342 183.571,342.720 184.656,342.591 185.240 C 342.463 185.825,341.827 186.897,341.179 187.624 C 340.530 188.350,340.000 189.168,340.000 189.441 C 340.000 189.715,339.583 190.447,339.073 191.069 C 338.563 191.691,337.917 192.772,337.636 193.471 C 337.356 194.170,336.878 194.838,336.573 194.955 C 336.269 195.072,335.643 195.967,335.184 196.945 C 334.724 197.923,334.000 199.038,333.574 199.423 C 333.148 199.809,332.800 200.333,332.800 200.589 C 332.800 200.845,332.170 201.762,331.400 202.627 C 330.630 203.492,330.000 204.391,330.000 204.625 C 330.000 204.858,329.659 205.415,329.243 205.862 C 328.826 206.309,328.213 207.198,327.881 207.838 C 327.548 208.477,326.809 209.436,326.238 209.970 C 325.667 210.503,325.200 211.150,325.200 211.408 C 325.200 211.665,324.821 212.219,324.357 212.638 C 323.893 213.057,323.080 214.255,322.550 215.300 C 322.020 216.345,321.448 217.200,321.280 217.200 C 321.111 217.200,320.651 217.745,320.257 218.411 C 319.864 219.077,319.150 220.033,318.671 220.536 C 318.192 221.039,317.440 222.054,317.000 222.792 C 315.134 225.923,314.514 226.807,313.681 227.530 C 313.196 227.950,312.797 228.453,312.794 228.647 C 312.790 228.841,312.243 229.617,311.578 230.372 C 310.914 231.126,310.086 232.341,309.739 233.072 C 309.393 233.802,308.954 234.400,308.765 234.400 C 308.575 234.400,308.151 234.921,307.822 235.558 C 307.493 236.194,306.723 237.263,306.112 237.932 C 304.294 239.921,302.800 241.884,302.800 242.283 C 302.800 242.488,302.170 243.392,301.400 244.292 C 300.630 245.191,300.000 246.057,300.000 246.215 C 300.000 246.483,298.565 248.255,296.195 250.916 C 295.648 251.530,295.200 252.258,295.200 252.533 C 295.200 252.808,294.615 253.701,293.900 254.516 C 291.053 257.763,290.000 259.116,290.000 259.526 C 290.000 259.762,289.666 260.190,289.258 260.477 C 288.849 260.765,288.138 261.720,287.676 262.600 C 287.215 263.480,286.379 264.624,285.819 265.142 C 285.258 265.660,284.800 266.329,284.800 266.628 C 284.800 266.927,284.395 267.381,283.900 267.636 C 283.405 267.891,282.581 268.482,282.068 268.950 C 280.797 270.109,272.459 270.465,270.485 269.444 C 268.380 268.355,268.912 265.336,271.766 262.183 C 272.960 260.864,274.473 258.861,275.400 257.371 C 276.716 255.256,277.696 253.881,278.982 252.342 C 279.652 251.540,280.611 250.280,281.112 249.542 C 281.614 248.804,282.464 247.570,283.001 246.800 C 283.538 246.030,284.440 244.716,285.005 243.881 C 285.571 243.045,286.296 242.261,286.617 242.138 C 286.938 242.015,287.200 241.755,287.200 241.561 C 287.200 240.905,291.622 234.659,293.900 232.096 C 294.615 231.291,295.200 230.407,295.200 230.131 C 295.200 229.854,295.703 229.037,296.318 228.314 C 296.932 227.591,297.744 226.550,298.121 226.000 C 298.498 225.450,299.432 224.190,300.196 223.200 C 300.959 222.210,301.883 220.860,302.248 220.200 C 302.971 218.894,304.407 217.001,306.039 215.205 C 306.610 214.575,307.300 213.525,307.571 212.870 C 307.842 212.215,308.500 211.270,309.032 210.770 C 309.564 210.270,310.000 209.696,310.000 209.494 C 310.000 209.292,310.630 208.391,311.400 207.492 C 312.170 206.592,312.800 205.638,312.800 205.371 C 312.800 205.104,313.063 204.785,313.384 204.662 C 313.705 204.538,314.423 203.539,314.979 202.441 C 315.535 201.343,316.238 200.300,316.541 200.122 C 316.844 199.945,317.391 199.215,317.756 198.500 C 318.122 197.785,318.574 197.200,318.762 197.200 C 318.949 197.200,319.329 196.655,319.604 195.989 C 319.880 195.324,320.710 194.019,321.449 193.089 C 322.188 192.160,322.794 191.181,322.796 190.914 C 322.798 190.647,323.172 190.229,323.626 189.986 C 324.081 189.743,324.804 188.791,325.233 187.872 C 325.990 186.248,326.886 184.854,328.984 182.036 C 329.543 181.285,330.000 180.351,330.000 179.960 C 330.000 179.569,330.533 178.666,331.184 177.953 C 331.835 177.240,332.475 176.167,332.607 175.569 C 332.738 174.971,333.370 173.788,334.012 172.941 C 334.653 172.093,335.183 170.919,335.189 170.331 C 335.195 169.743,335.627 168.753,336.149 168.131 C 336.796 167.359,337.255 166.047,337.594 164.000 C 337.867 162.350,338.319 160.442,338.599 159.761 C 339.407 157.795,339.666 154.770,339.213 152.600 C 338.599 149.662,338.105 146.622,337.634 142.891 C 337.333 140.499,336.938 139.172,336.209 138.099 C 335.600 137.203,335.200 136.053,335.200 135.198 C 335.200 134.233,334.837 133.340,334.058 132.391 C 333.430 131.626,332.639 130.460,332.299 129.799 C 331.960 129.139,331.303 128.256,330.841 127.837 C 330.378 127.418,329.999 126.879,329.997 126.638 C 329.988 125.506,322.264 118.733,319.555 117.482 C 318.760 117.115,317.884 116.542,317.607 116.209 C 317.331 115.875,316.230 115.343,315.161 115.026 C 314.093 114.708,312.840 114.096,312.378 113.665 C 311.915 113.234,310.778 112.768,309.851 112.628 C 308.923 112.489,307.093 111.842,305.782 111.189 C 304.275 110.439,302.779 110.002,301.709 110.002 C 300.779 110.001,298.823 109.550,297.362 109.000 C 291.103 106.644,252.917 106.502,246.545 108.811 C 245.144 109.319,242.489 109.797,239.949 109.998 C 236.977 110.234,235.111 110.603,233.749 111.225 C 232.677 111.714,230.322 112.333,228.517 112.600 C 226.711 112.868,224.732 113.415,224.119 113.816 C 220.578 116.137,218.125 114.622,217.578 109.776 C 217.355 107.809,216.972 105.637,216.724 104.949 C 215.784 102.332,218.059 100.564,223.126 99.974 C 224.815 99.777,226.595 99.297,227.337 98.839 C 228.240 98.281,229.923 97.916,233.010 97.608 C 235.523 97.358,238.084 96.859,239.000 96.441 C 241.176 95.447,242.537 95.238,249.662 94.806 C 253.038 94.601,256.375 94.232,257.079 93.985 C 260.397 92.821,274.534 92.482,280.400 93.426 M285.848 115.178 C 290.719 115.462,292.215 115.693,293.537 116.368 C 294.439 116.828,296.578 117.399,298.289 117.635 C 300.000 117.872,301.973 118.418,302.674 118.849 C 303.375 119.281,304.965 119.799,306.208 120.001 C 307.569 120.223,309.197 120.852,310.302 121.584 C 311.311 122.253,312.487 122.800,312.914 122.800 C 314.293 122.800,325.200 132.877,325.200 134.151 C 325.200 134.474,325.624 135.247,326.142 135.869 C 326.660 136.491,327.317 137.713,327.601 138.584 C 327.885 139.456,328.541 141.012,329.059 142.042 C 329.576 143.073,330.000 144.602,330.000 145.441 C 330.000 146.280,330.283 149.160,330.629 151.841 C 331.200 156.272,331.200 157.046,330.629 160.358 C 330.283 162.361,329.999 164.495,329.999 165.100 C 329.998 165.705,329.630 166.803,329.180 167.540 C 328.731 168.276,328.093 169.676,327.762 170.651 C 327.431 171.625,326.720 173.073,326.180 173.867 C 325.641 174.662,325.200 175.550,325.200 175.842 C 325.200 176.134,324.688 176.963,324.063 177.686 C 323.438 178.409,322.737 179.558,322.505 180.240 C 322.273 180.922,321.615 181.949,321.042 182.522 C 320.469 183.095,320.000 183.832,320.000 184.159 C 320.000 184.487,319.666 184.990,319.258 185.277 C 318.849 185.565,318.122 186.520,317.641 187.400 C 316.388 189.695,314.357 192.514,313.519 193.123 C 313.124 193.410,312.800 193.836,312.800 194.069 C 312.800 194.302,312.170 195.351,311.400 196.400 C 310.630 197.449,310.000 198.498,310.000 198.731 C 310.000 198.964,309.677 199.390,309.282 199.677 C 308.887 199.965,308.153 200.874,307.651 201.698 C 307.149 202.521,306.527 203.331,306.269 203.498 C 306.011 203.664,305.440 204.453,305.000 205.251 C 304.560 206.049,303.390 207.738,302.400 209.005 C 301.410 210.272,300.330 211.709,300.000 212.197 C 299.088 213.547,296.512 217.227,295.378 218.800 C 294.823 219.570,294.132 220.381,293.843 220.601 C 293.553 220.822,292.927 221.767,292.450 222.701 C 291.974 223.636,291.428 224.400,291.237 224.400 C 291.047 224.400,290.587 225.041,290.215 225.824 C 289.844 226.607,289.275 227.350,288.953 227.473 C 288.630 227.597,288.010 228.396,287.575 229.249 C 287.140 230.102,286.611 230.800,286.400 230.800 C 286.189 230.800,285.627 231.565,285.151 232.500 C 284.674 233.435,283.951 234.435,283.542 234.723 C 283.134 235.010,282.800 235.462,282.800 235.727 C 282.800 235.992,282.305 236.742,281.700 237.394 C 280.231 238.978,279.015 240.667,277.971 242.572 C 277.497 243.437,276.775 244.427,276.365 244.772 C 275.632 245.390,274.650 246.680,272.563 249.769 C 271.980 250.631,271.165 251.700,270.752 252.144 C 270.338 252.588,270.000 253.177,270.000 253.453 C 270.000 253.729,269.677 254.190,269.282 254.477 C 268.887 254.765,268.152 255.675,267.649 256.500 C 267.146 257.325,266.573 258.000,266.376 258.000 C 266.178 258.000,265.672 258.675,265.251 259.500 C 264.830 260.325,264.106 261.343,263.643 261.762 C 263.179 262.181,262.800 262.729,262.800 262.979 C 262.800 263.228,262.215 264.113,261.500 264.945 C 257.428 269.681,256.751 269.994,250.589 269.998 C 242.617 270.002,242.763 266.828,251.169 257.400 C 251.561 256.960,252.160 256.060,252.500 255.399 C 252.840 254.739,253.497 253.856,253.959 253.437 C 254.422 253.018,254.800 252.458,254.800 252.193 C 254.800 251.927,255.228 251.280,255.750 250.755 C 256.903 249.597,259.353 246.408,259.956 245.281 C 260.198 244.831,260.621 244.223,260.898 243.931 C 261.175 243.639,261.899 242.635,262.506 241.700 C 263.114 240.765,263.777 240.000,263.979 240.000 C 264.181 240.000,264.459 239.645,264.596 239.212 C 264.734 238.779,265.376 237.924,266.023 237.313 C 266.670 236.702,267.200 236.040,267.200 235.840 C 267.200 235.457,268.878 233.092,271.200 230.203 C 271.970 229.244,273.010 227.862,273.510 227.130 C 275.335 224.465,278.466 220.206,278.749 220.005 C 278.908 219.892,279.471 219.170,280.000 218.400 C 280.529 217.630,281.074 216.910,281.211 216.800 C 281.348 216.690,281.807 215.980,282.230 215.222 C 282.654 214.463,283.490 213.317,284.088 212.675 C 284.686 212.032,285.283 211.168,285.415 210.753 C 285.546 210.339,285.819 210.000,286.021 210.000 C 286.223 210.000,286.885 209.235,287.491 208.300 C 288.097 207.365,288.702 206.510,288.836 206.400 C 288.971 206.290,289.558 205.480,290.142 204.600 C 290.726 203.720,291.834 202.190,292.605 201.200 C 293.376 200.210,294.360 198.860,294.792 198.200 C 295.701 196.812,296.280 196.013,297.982 193.800 C 298.658 192.920,299.587 191.615,300.046 190.900 C 300.504 190.185,301.033 189.600,301.221 189.600 C 301.409 189.600,301.874 188.925,302.256 188.100 C 302.913 186.677,303.545 185.781,306.101 182.643 C 306.707 181.900,307.457 180.682,307.768 179.938 C 308.079 179.193,308.709 178.245,309.167 177.830 C 309.625 177.415,310.000 176.848,310.000 176.569 C 310.000 176.290,310.455 175.521,311.010 174.861 C 311.566 174.200,312.226 173.061,312.478 172.330 C 312.729 171.598,313.236 170.730,313.605 170.400 C 314.507 169.592,315.200 168.226,315.200 167.257 C 315.200 166.819,315.643 165.935,316.185 165.291 C 318.479 162.564,318.541 149.530,316.274 146.195 C 315.683 145.326,315.198 144.341,315.196 144.007 C 315.193 143.673,314.475 142.500,313.600 141.400 C 312.725 140.300,312.007 139.187,312.004 138.927 C 312.002 138.667,311.674 138.350,311.275 138.224 C 310.876 138.097,309.871 137.372,309.043 136.614 C 308.214 135.855,307.146 135.116,306.668 134.972 C 306.191 134.828,305.350 134.311,304.800 133.822 C 304.250 133.334,302.990 132.707,302.000 132.428 C 301.010 132.150,299.605 131.559,298.877 131.115 C 298.111 130.646,296.345 130.168,294.677 129.977 C 293.095 129.795,290.630 129.234,289.200 128.729 C 286.011 127.604,259.761 127.283,256.600 128.330 C 253.370 129.401,252.099 129.622,247.200 129.967 C 243.691 130.214,241.305 130.617,239.200 131.320 C 237.550 131.870,234.940 132.452,233.400 132.612 C 231.743 132.784,229.813 133.298,228.672 133.872 C 227.278 134.573,226.235 134.808,224.903 134.721 L 223.061 134.600 222.119 131.000 C 221.602 129.020,220.974 126.643,220.726 125.717 C 220.170 123.651,220.515 123.129,222.895 122.427 C 223.833 122.150,225.140 121.683,225.800 121.388 C 227.774 120.505,230.079 120.005,232.200 119.998 C 233.470 119.994,234.965 119.636,236.296 119.016 C 237.449 118.480,239.519 117.929,240.896 117.792 C 242.273 117.655,245.740 117.109,248.600 116.578 C 256.753 115.065,273.247 114.445,285.848 115.178 M287.400 136.371 C 288.720 136.843,291.050 137.407,292.579 137.624 C 294.139 137.846,296.134 138.454,297.129 139.010 C 298.103 139.554,299.299 140.000,299.785 140.000 C 300.649 140.000,304.270 142.480,304.936 143.529 C 305.121 143.820,305.796 144.525,306.436 145.095 C 307.076 145.666,307.600 146.347,307.600 146.610 C 307.600 146.872,308.140 148.099,308.800 149.336 C 310.390 152.315,310.602 161.245,309.159 164.400 C 308.706 165.390,308.058 167.008,307.719 167.996 C 307.380 168.984,306.798 170.006,306.425 170.268 C 306.052 170.529,305.502 171.520,305.203 172.471 C 304.903 173.422,304.240 174.581,303.729 175.047 C 303.218 175.512,302.800 176.083,302.800 176.316 C 302.800 176.548,302.348 177.276,301.795 177.934 C 301.242 178.591,300.516 179.782,300.182 180.582 C 299.848 181.381,299.303 182.139,298.970 182.267 C 298.638 182.394,298.010 183.196,297.575 184.049 C 297.140 184.902,296.598 185.600,296.371 185.600 C 296.145 185.600,295.714 186.185,295.415 186.900 C 295.116 187.615,294.487 188.642,294.017 189.182 C 293.548 189.722,292.797 190.757,292.349 191.482 C 291.901 192.207,291.408 192.800,291.254 192.800 C 291.099 192.800,290.657 193.333,290.272 193.985 C 289.887 194.637,289.332 195.411,289.038 195.705 C 288.744 195.999,288.198 196.829,287.825 197.551 C 287.452 198.272,286.624 199.410,285.986 200.078 C 285.347 200.746,284.717 201.632,284.585 202.047 C 284.454 202.461,284.180 202.800,283.978 202.800 C 283.776 202.800,283.130 203.561,282.542 204.491 C 281.955 205.421,281.233 206.424,280.937 206.720 C 280.642 207.015,280.400 207.407,280.400 207.591 C 280.400 207.895,279.300 209.335,276.577 212.600 C 275.524 213.861,274.138 215.788,272.836 217.800 C 272.091 218.952,271.392 219.863,269.188 222.561 C 267.060 225.166,264.800 228.288,264.800 228.623 C 264.800 228.815,264.443 229.338,264.006 229.786 C 262.574 231.253,260.000 234.442,260.000 234.749 C 260.000 234.914,259.685 235.398,259.300 235.825 C 258.915 236.251,258.102 237.365,257.494 238.300 C 256.886 239.235,256.223 240.000,256.021 240.000 C 255.819 240.000,255.541 240.355,255.404 240.788 C 255.266 241.221,254.624 242.076,253.977 242.687 C 253.330 243.298,252.796 243.978,252.791 244.199 C 252.786 244.419,252.417 245.050,251.971 245.600 C 251.525 246.150,250.721 247.230,250.184 248.000 C 249.647 248.770,248.488 250.300,247.610 251.400 C 246.731 252.500,245.161 254.660,244.122 256.200 C 243.083 257.740,241.831 259.450,241.341 260.000 C 239.354 262.228,238.086 263.855,237.557 264.853 C 235.306 269.106,232.725 270.224,225.897 269.900 C 220.179 269.629,218.748 267.993,221.500 264.871 C 223.502 262.599,224.800 260.895,224.800 260.538 C 224.800 260.344,225.475 259.339,226.300 258.306 C 227.125 257.272,228.430 255.598,229.200 254.585 C 229.970 253.573,230.972 252.333,231.428 251.830 C 231.883 251.326,232.490 250.349,232.776 249.657 C 233.063 248.966,233.444 248.400,233.623 248.400 C 233.802 248.400,234.353 247.680,234.848 246.800 C 235.343 245.920,235.874 245.200,236.028 245.200 C 236.327 245.200,239.213 241.287,242.593 236.300 C 243.153 235.475,243.794 234.800,244.018 234.800 C 244.242 234.800,244.556 234.449,244.714 234.020 C 244.873 233.592,245.413 232.737,245.915 232.120 C 246.922 230.885,249.065 227.975,250.000 226.575 C 250.767 225.426,252.308 223.483,253.658 221.962 C 254.239 221.306,254.936 220.237,255.206 219.585 C 255.476 218.933,255.853 218.400,256.044 218.400 C 256.234 218.400,256.871 217.635,257.459 216.700 C 258.046 215.765,258.859 214.765,259.264 214.477 C 259.669 214.190,260.000 213.768,260.000 213.541 C 260.000 213.313,260.630 212.391,261.400 211.492 C 262.170 210.592,262.800 209.629,262.800 209.351 C 262.800 209.073,263.131 208.610,263.537 208.323 C 263.942 208.035,264.504 207.350,264.787 206.800 C 265.069 206.250,265.773 205.327,266.350 204.749 C 267.602 203.496,270.000 200.251,270.000 199.809 C 270.000 199.638,270.628 198.755,271.397 197.848 C 274.250 194.481,276.921 190.894,277.740 189.331 C 278.066 188.709,278.708 187.935,279.166 187.612 C 279.625 187.288,280.000 186.821,280.000 186.574 C 280.000 186.326,280.383 185.781,280.852 185.362 C 281.647 184.651,282.249 183.831,284.800 179.986 C 286.097 178.030,287.941 175.648,289.089 174.445 C 289.590 173.920,290.000 173.331,290.000 173.136 C 290.000 172.709,292.360 169.084,293.750 167.376 C 294.298 166.702,294.872 165.622,295.025 164.976 C 295.178 164.329,295.729 163.341,296.249 162.780 C 298.729 160.109,297.895 155.000,294.527 152.227 C 292.100 150.229,291.851 150.138,288.000 149.857 C 286.570 149.753,283.189 149.448,280.487 149.180 C 276.581 148.793,274.696 148.797,271.287 149.198 C 268.929 149.475,262.950 149.831,258.000 149.987 C 250.041 150.240,248.750 150.375,246.838 151.155 C 245.541 151.684,242.980 152.210,240.438 152.469 C 237.883 152.730,235.162 153.290,233.586 153.880 C 228.254 155.876,226.115 154.176,225.122 147.155 C 224.465 142.509,226.702 140.608,233.530 140.010 C 235.499 139.837,237.938 139.327,239.169 138.832 C 240.859 138.150,242.713 137.876,247.569 137.586 C 251.388 137.359,254.574 136.956,255.800 136.545 C 260.486 134.976,283.148 134.851,287.400 136.371 M360.177 273.689 C 361.279 275.262,361.065 283.851,359.900 284.823 C 358.749 285.783,219.849 285.989,217.200 285.035 L 215.800 284.530 215.684 279.965 C 215.548 274.605,215.679 273.876,216.891 273.292 C 217.538 272.980,238.204 272.846,288.677 272.827 L 359.555 272.800 360.177 273.689 M359.746 294.829 C 361.445 296.165,361.229 305.770,359.475 306.886 C 358.669 307.398,218.592 307.270,217.463 306.756 C 215.686 305.946,214.564 296.517,216.100 295.303 C 217.615 294.105,220.038 294.063,288.846 294.032 L 358.692 294.000 359.746 294.829 M359.746 315.629 C 361.266 316.825,361.398 325.936,359.911 326.977 C 358.969 327.637,219.153 327.896,216.800 327.243 C 215.619 326.915,214.984 316.986,216.089 316.112 C 217.616 314.904,219.939 314.863,288.846 314.832 L 358.692 314.800 359.746 315.629 " stroke="none" fill="#6c344c" fill-rule="evenodd"></path></g></svg><style>@media (prefers-color-scheme: light) { :root { filter: none; } }
</style></svg>