<svg xmlns="http://www.w3.org/2000/svg" version="1.1" xmlns:xlink="http://www.w3.org/1999/xlink" xmlns:svgjs="http://svgjs.com/svgjs" width="400" height="400"><svg id="SvgjsSvg1003" version="1.1" xmlns="http://www.w3.org/2000/svg" xmlns:xlink="http://www.w3.org/1999/xlink" width="400" height="400" viewBox="0, 0, 400,400"><g id="SvgjsG1002"><path id="SvgjsPath1001" d="M246.400 98.410 C 244.970 98.578,243.009 98.928,242.043 99.188 C 241.076 99.449,238.286 99.813,235.843 99.998 C 233.399 100.182,230.590 100.623,229.600 100.976 C 228.610 101.330,226.299 101.799,224.464 102.018 C 222.629 102.237,220.580 102.700,219.911 103.046 C 219.242 103.392,217.503 103.840,216.047 104.041 C 212.731 104.499,211.996 105.245,212.010 108.144 C 212.032 113.063,213.950 116.162,216.258 115.011 C 216.930 114.675,218.362 114.293,219.440 114.160 C 220.518 114.027,222.690 113.487,224.267 112.959 C 225.844 112.432,227.943 112.000,228.932 112.000 C 229.920 112.000,231.870 111.628,233.264 111.173 C 234.861 110.652,237.725 110.211,241.000 109.983 C 243.860 109.784,246.830 109.429,247.600 109.195 C 251.744 107.934,270.905 107.947,274.236 109.214 C 274.863 109.452,277.457 109.792,280.001 109.968 C 283.065 110.181,285.079 110.524,285.966 110.983 C 286.703 111.364,288.481 111.842,289.918 112.045 C 291.355 112.249,293.086 112.748,293.765 113.155 C 294.444 113.562,295.618 114.011,296.374 114.152 C 297.129 114.294,298.029 114.654,298.374 114.953 C 298.718 115.252,299.931 115.800,301.069 116.171 C 302.207 116.541,303.354 117.104,303.618 117.422 C 303.882 117.740,304.332 118.000,304.618 118.000 C 304.904 118.000,305.647 118.412,306.269 118.916 C 306.891 119.419,307.881 120.039,308.469 120.293 C 309.572 120.769,310.520 121.473,312.389 123.200 C 312.983 123.750,314.155 124.740,314.992 125.400 C 315.829 126.060,316.624 126.690,316.758 126.800 C 318.244 128.013,323.584 135.420,324.112 137.000 C 324.333 137.660,324.735 138.470,325.006 138.800 C 325.277 139.130,325.726 140.105,326.003 140.967 C 326.280 141.830,326.822 143.090,327.207 143.767 C 327.592 144.445,328.004 145.990,328.121 147.200 C 328.238 148.410,328.705 150.210,329.158 151.200 C 330.520 154.174,330.397 170.141,328.991 173.000 C 328.450 174.100,328.006 175.591,328.004 176.313 C 328.002 177.036,327.550 178.515,327.000 179.600 C 326.450 180.685,326.000 181.808,326.000 182.094 C 326.000 182.380,325.550 183.277,325.000 184.086 C 324.450 184.895,324.000 185.813,324.000 186.125 C 324.000 186.437,323.626 187.168,323.168 187.750 C 322.710 188.332,321.790 189.841,321.124 191.104 C 320.457 192.367,319.609 193.760,319.239 194.200 C 318.869 194.640,318.254 195.630,317.872 196.400 C 317.490 197.170,316.472 198.790,315.610 200.000 C 314.749 201.210,314.034 202.397,314.022 202.638 C 314.010 202.879,313.619 203.419,313.154 203.838 C 312.689 204.257,312.144 204.960,311.944 205.400 C 311.744 205.840,311.140 206.830,310.602 207.600 C 310.064 208.370,309.214 209.589,308.712 210.309 C 308.211 211.030,307.395 212.074,306.900 212.630 C 306.405 213.186,306.000 213.817,306.000 214.032 C 306.000 214.247,305.144 215.543,304.097 216.911 C 303.051 218.280,301.661 220.210,301.009 221.200 C 300.357 222.190,299.368 223.559,298.812 224.243 C 298.255 224.927,297.499 225.857,297.131 226.311 C 296.763 226.765,296.244 227.556,295.977 228.068 C 295.710 228.581,294.747 229.900,293.837 231.000 C 292.928 232.100,291.657 233.810,291.012 234.800 C 290.368 235.790,289.019 237.590,288.015 238.800 C 287.010 240.010,285.659 241.810,285.011 242.800 C 284.363 243.790,283.015 245.579,282.016 246.776 C 275.793 254.231,276.131 256.283,283.526 255.929 C 287.742 255.728,288.355 255.368,291.716 251.124 C 292.989 249.516,295.249 246.670,296.737 244.800 C 298.225 242.930,300.063 240.500,300.821 239.400 C 301.580 238.300,303.100 236.287,304.200 234.927 C 305.300 233.567,307.190 231.063,308.400 229.362 C 309.610 227.662,310.780 226.074,311.000 225.833 C 311.220 225.592,312.117 224.332,312.993 223.033 C 313.870 221.733,314.781 220.475,315.020 220.235 C 315.258 219.996,316.114 218.810,316.922 217.600 C 317.730 216.390,319.175 214.320,320.133 213.000 C 321.090 211.680,322.109 210.150,322.397 209.600 C 322.684 209.050,323.028 208.510,323.160 208.400 C 323.629 208.009,326.000 204.371,326.000 204.042 C 326.000 203.858,326.405 203.200,326.900 202.579 C 328.011 201.185,329.374 198.990,330.116 197.400 C 330.424 196.740,330.974 195.953,331.338 195.651 C 331.702 195.349,332.000 194.788,332.000 194.405 C 332.000 194.022,332.366 193.242,332.814 192.673 C 333.262 192.103,333.831 191.044,334.078 190.319 C 334.326 189.593,334.859 188.571,335.264 188.046 C 335.669 187.521,336.000 186.799,336.000 186.440 C 336.000 186.082,336.391 185.071,336.869 184.194 C 337.347 183.317,337.867 181.689,338.024 180.577 C 338.181 179.464,338.667 177.754,339.103 176.777 C 340.630 173.355,340.620 148.730,339.091 146.394 C 338.733 145.847,338.316 144.590,338.164 143.600 C 338.012 142.610,337.558 141.142,337.154 140.337 C 336.751 139.532,336.298 138.100,336.146 137.155 C 335.885 135.522,334.403 132.284,333.013 130.312 C 331.200 127.740,330.014 125.742,330.007 125.250 C 329.995 124.325,318.203 112.916,316.225 111.917 C 315.228 111.413,312.860 110.100,310.963 109.000 C 309.067 107.900,307.130 106.778,306.658 106.506 C 306.186 106.234,305.503 106.009,305.140 106.006 C 304.777 106.003,303.517 105.552,302.340 105.004 C 301.163 104.456,299.879 104.006,299.487 104.004 C 299.094 104.002,297.885 103.550,296.800 103.000 C 295.715 102.450,294.276 102.000,293.603 102.000 C 292.930 102.000,291.350 101.634,290.090 101.187 C 288.831 100.740,286.360 100.266,284.600 100.134 C 282.840 100.002,280.777 99.641,280.015 99.332 C 277.250 98.209,253.635 97.562,246.400 98.410 M72.124 106.900 C 71.706 107.545,71.490 297.456,71.905 299.931 L 72.217 301.800 76.649 301.913 C 80.053 301.999,81.188 301.896,81.543 301.469 C 82.331 300.519,81.991 107.291,81.200 106.792 C 80.270 106.204,72.514 106.296,72.124 106.900 M89.325 106.714 C 89.064 106.880,88.659 107.519,88.425 108.134 C 87.859 109.624,87.824 299.485,88.390 300.974 C 88.834 302.141,96.840 302.600,97.920 301.520 C 98.559 300.881,98.624 108.367,97.986 107.174 C 97.551 106.362,90.470 105.986,89.325 106.714 M105.776 107.797 C 104.925 109.833,105.096 300.310,105.949 301.339 C 106.637 302.167,114.720 302.320,115.520 301.520 C 116.169 300.871,116.223 109.839,115.575 108.134 C 114.963 106.524,114.622 106.413,110.280 106.406 L 106.359 106.400 105.776 107.797 M122.532 106.887 C 121.990 107.725,121.905 300.803,122.446 301.455 C 123.072 302.210,198.766 302.274,199.520 301.520 C 200.408 300.632,200.159 292.913,199.226 292.414 C 198.711 292.138,187.514 292.000,165.706 292.000 C 129.262 292.000,132.000 292.246,132.000 288.969 C 132.000 285.809,129.502 286.035,165.908 285.911 C 203.801 285.783,199.746 286.409,199.934 280.658 C 200.126 274.780,204.194 275.418,165.752 275.291 L 132.827 275.182 132.374 273.671 C 132.077 272.678,132.042 271.550,132.273 270.380 L 132.625 268.600 165.813 268.400 C 184.066 268.290,199.225 268.054,199.500 267.876 C 200.240 267.398,200.184 260.004,199.432 258.976 C 198.880 258.220,198.004 258.197,165.874 258.091 C 139.052 258.002,132.801 257.883,132.443 257.451 C 132.126 257.070,131.974 235.749,131.901 181.760 L 131.800 106.600 127.332 106.487 C 124.034 106.404,122.776 106.509,122.532 106.887 M249.301 114.826 C 247.927 115.005,246.605 115.273,246.363 115.423 C 246.121 115.572,243.556 115.831,240.662 115.998 C 237.219 116.197,234.847 116.536,233.800 116.979 C 232.920 117.352,230.655 117.820,228.766 118.018 C 226.878 118.217,224.538 118.740,223.566 119.181 C 222.595 119.622,221.259 119.986,220.597 119.991 C 216.867 120.018,214.590 121.953,215.451 124.362 C 215.734 125.153,215.975 126.610,215.988 127.600 C 216.036 131.270,217.753 132.520,220.846 131.135 C 221.797 130.709,223.391 130.261,224.388 130.140 C 225.384 130.018,227.490 129.487,229.067 128.959 C 230.644 128.432,232.805 128.000,233.868 128.000 C 234.932 128.000,237.062 127.626,238.601 127.169 C 245.022 125.262,274.126 125.260,279.952 127.165 C 281.356 127.624,282.976 128.004,283.552 128.009 C 284.128 128.014,285.375 128.369,286.323 128.800 C 287.271 129.230,288.795 129.783,289.709 130.029 C 290.624 130.276,291.807 130.820,292.340 131.239 C 292.872 131.657,293.617 132.000,293.994 132.000 C 294.371 132.000,295.472 132.537,296.440 133.193 C 297.408 133.849,298.402 134.389,298.649 134.393 C 299.152 134.401,305.812 140.878,306.897 142.414 C 309.065 145.483,309.986 147.090,309.993 147.815 C 309.997 148.264,310.375 149.344,310.833 150.215 C 311.297 151.097,312.017 153.928,312.456 156.600 C 313.733 164.366,313.745 164.734,312.835 167.992 C 312.376 169.638,312.000 171.458,312.000 172.038 C 312.000 172.618,311.657 173.528,311.239 174.060 C 310.820 174.593,310.275 175.779,310.028 176.697 C 309.781 177.615,309.388 178.484,309.156 178.627 C 308.924 178.771,308.378 179.633,307.942 180.544 C 306.872 182.785,305.715 184.914,305.305 185.400 C 305.119 185.620,304.272 186.880,303.422 188.200 C 302.572 189.520,301.635 190.960,301.338 191.400 C 300.259 193.002,296.980 197.733,296.200 198.813 C 295.760 199.423,294.557 201.160,293.526 202.675 C 292.496 204.189,291.281 205.765,290.826 206.176 C 290.372 206.587,290.000 207.058,290.000 207.222 C 290.000 207.580,287.774 210.919,285.802 213.519 C 284.006 215.886,280.790 220.255,280.000 221.402 C 278.076 224.193,277.099 225.572,276.031 227.000 C 275.373 227.880,274.161 229.590,273.339 230.800 C 272.516 232.010,271.383 233.559,270.821 234.243 C 268.696 236.829,268.449 237.161,267.973 238.068 C 267.703 238.581,266.827 239.810,266.025 240.800 C 264.548 242.624,264.023 243.351,262.147 246.169 C 260.985 247.915,260.904 248.023,259.273 250.000 C 255.474 254.604,256.676 256.257,263.583 255.927 C 267.935 255.718,268.694 255.179,272.488 249.600 C 272.862 249.050,274.300 247.118,275.684 245.307 C 277.068 243.496,278.650 241.371,279.200 240.583 C 279.750 239.796,280.428 238.903,280.707 238.598 C 281.330 237.916,283.529 235.006,284.604 233.440 C 285.042 232.803,285.670 231.887,286.000 231.406 C 286.967 229.996,290.250 225.561,291.887 223.452 C 292.719 222.380,294.248 220.310,295.285 218.852 C 296.322 217.393,297.621 215.570,298.173 214.800 C 301.575 210.048,303.381 207.475,305.049 205.000 C 306.086 203.460,307.041 202.110,307.171 202.000 C 307.554 201.676,309.745 198.294,310.346 197.100 C 310.651 196.495,311.030 196.000,311.189 196.000 C 311.348 196.000,311.803 195.280,312.200 194.400 C 312.597 193.520,313.052 192.800,313.212 192.800 C 313.372 192.800,313.721 192.273,313.988 191.629 C 314.255 190.985,314.806 190.156,315.214 189.787 C 315.621 189.419,316.065 188.614,316.200 188.000 C 316.335 187.386,316.785 186.576,317.200 186.200 C 317.615 185.824,318.066 185.008,318.203 184.386 C 318.340 183.764,318.701 183.048,319.005 182.796 C 319.310 182.543,319.756 181.675,319.997 180.868 C 320.238 180.061,320.766 178.680,321.170 177.800 C 321.950 176.102,322.965 172.430,323.659 168.800 C 324.314 165.371,323.808 155.919,322.815 153.037 C 322.367 151.738,322.000 150.158,322.000 149.525 C 322.000 148.893,321.550 147.307,321.000 146.000 C 320.450 144.693,320.000 143.421,320.000 143.174 C 320.000 142.926,319.664 142.246,319.252 141.662 C 318.841 141.078,318.373 140.176,318.212 139.659 C 317.092 136.053,310.084 128.354,305.095 125.247 C 304.163 124.666,303.040 123.964,302.600 123.686 C 302.160 123.408,300.872 122.745,299.737 122.212 C 298.602 121.679,297.566 121.069,297.435 120.856 C 297.303 120.644,296.432 120.342,295.498 120.187 C 294.564 120.031,292.991 119.475,292.003 118.952 C 291.015 118.428,289.665 117.999,289.003 117.998 C 288.341 117.997,286.540 117.551,285.000 117.007 C 282.838 116.242,281.379 116.013,278.600 116.001 C 276.620 115.992,272.570 115.632,269.600 115.200 C 263.916 114.374,254.163 114.194,249.301 114.826 M247.447 132.415 C 245.273 132.607,242.149 133.042,240.504 133.382 C 238.860 133.722,236.859 134.004,236.057 134.008 C 235.256 134.013,233.340 134.462,231.800 135.007 C 230.260 135.551,228.280 136.005,227.400 136.015 C 225.379 136.039,219.137 138.122,218.617 138.946 C 218.354 139.362,218.396 140.130,218.745 141.283 C 219.031 142.227,219.476 143.900,219.734 145.000 C 220.542 148.446,221.273 148.722,225.037 147.000 C 226.240 146.450,227.915 146.000,228.760 146.000 C 229.605 146.000,231.444 145.624,232.848 145.165 C 234.252 144.706,237.290 144.178,239.600 143.994 C 241.910 143.809,244.880 143.345,246.200 142.964 C 250.653 141.676,267.681 141.662,272.885 142.941 C 275.148 143.498,277.813 144.058,278.806 144.187 C 279.800 144.316,281.150 144.775,281.806 145.208 C 282.463 145.641,283.276 145.996,283.613 145.997 C 284.141 146.000,287.806 148.108,289.000 149.097 C 289.220 149.279,289.803 149.707,290.296 150.049 C 291.487 150.874,292.843 152.798,294.630 156.200 L 296.100 159.000 296.150 164.600 C 296.199 170.032,296.167 170.256,295.100 172.071 C 294.495 173.100,294.000 174.163,294.000 174.433 C 294.000 174.704,293.550 175.514,293.000 176.236 C 292.450 176.957,291.997 177.694,291.993 177.873 C 291.989 178.053,291.494 178.938,290.893 179.839 C 290.292 180.740,289.350 182.234,288.800 183.159 C 288.250 184.084,287.350 185.432,286.800 186.155 C 285.362 188.046,284.608 189.117,282.963 191.600 C 282.161 192.810,281.301 193.980,281.051 194.200 C 280.801 194.420,279.880 195.680,279.005 197.000 C 278.130 198.320,277.140 199.707,276.807 200.083 C 276.473 200.459,275.696 201.449,275.081 202.283 C 274.465 203.117,272.845 205.310,271.481 207.156 C 270.116 209.002,268.316 211.509,267.480 212.726 C 266.645 213.943,265.475 215.507,264.880 216.202 C 263.110 218.271,262.000 219.756,262.000 220.054 C 262.000 220.208,261.055 221.511,259.900 222.949 C 258.745 224.388,257.350 226.218,256.800 227.015 C 256.250 227.813,254.990 229.494,254.000 230.751 C 253.010 232.007,252.020 233.317,251.800 233.661 C 250.859 235.135,249.771 236.680,248.885 237.800 C 241.551 247.076,237.544 252.923,237.807 253.968 C 238.307 255.961,238.664 256.096,242.984 255.931 C 247.274 255.767,248.885 255.190,250.020 253.414 C 250.945 251.964,254.028 247.762,256.200 244.989 C 257.300 243.584,258.650 241.786,259.200 240.992 C 259.750 240.199,260.936 238.616,261.836 237.475 C 262.736 236.334,263.926 234.680,264.480 233.800 C 265.035 232.920,266.099 231.446,266.845 230.524 C 267.590 229.602,268.650 228.202,269.200 227.412 C 271.092 224.695,272.205 223.186,274.100 220.770 C 275.145 219.437,276.000 218.188,276.000 217.994 C 276.000 217.800,276.860 216.597,277.912 215.321 C 278.963 214.044,280.501 212.010,281.329 210.800 C 282.157 209.590,283.373 207.880,284.031 207.000 C 285.110 205.557,286.277 203.910,288.000 201.398 C 288.330 200.916,289.446 199.370,290.480 197.961 C 291.514 196.553,292.774 194.808,293.280 194.084 C 293.786 193.359,294.695 192.120,295.300 191.329 C 295.905 190.537,296.400 189.735,296.400 189.545 C 296.400 189.355,296.681 188.885,297.025 188.500 C 298.460 186.893,300.000 184.655,300.000 184.176 C 300.000 183.893,300.405 183.153,300.900 182.531 C 301.767 181.441,302.796 179.473,304.942 174.800 C 307.077 170.150,307.213 158.393,305.188 153.600 C 302.731 147.788,302.161 146.849,299.267 143.856 C 296.703 141.204,292.536 138.000,291.651 138.000 C 291.328 138.000,290.742 137.709,290.349 137.354 C 289.956 136.998,288.502 136.383,287.117 135.987 C 285.733 135.591,283.880 134.990,283.000 134.651 C 282.120 134.312,280.838 134.027,280.151 134.018 C 279.464 134.008,278.024 133.605,276.951 133.121 C 274.754 132.132,255.805 131.678,247.447 132.415 M253.400 148.430 C 250.320 148.589,247.260 148.933,246.600 149.195 C 245.940 149.457,243.141 149.823,240.380 150.010 C 237.598 150.198,234.566 150.639,233.580 151.000 C 232.601 151.359,230.441 151.804,228.780 151.991 C 223.170 152.620,221.660 154.018,222.171 158.110 C 222.779 162.975,224.531 164.469,228.183 163.236 C 229.653 162.739,232.419 162.182,234.328 161.998 C 236.238 161.814,238.520 161.355,239.400 160.977 C 240.413 160.542,242.393 160.237,244.800 160.145 C 246.890 160.064,251.949 159.791,256.041 159.538 C 263.724 159.062,273.931 159.566,275.800 160.513 C 282.197 163.756,281.125 169.473,271.922 181.192 C 270.975 182.398,269.666 184.198,269.012 185.192 C 268.359 186.187,267.009 188.020,266.012 189.267 C 265.016 190.514,263.750 192.190,263.200 192.992 C 262.650 193.795,261.372 195.474,260.360 196.725 C 259.347 197.976,258.302 199.412,258.037 199.915 C 257.772 200.419,256.440 202.221,255.078 203.919 C 253.715 205.617,251.980 207.905,251.223 209.004 C 250.466 210.102,249.095 211.900,248.178 213.000 C 247.260 214.100,246.294 215.412,246.032 215.915 C 245.770 216.419,244.426 218.219,243.045 219.915 C 241.664 221.612,240.321 223.399,240.060 223.887 C 239.799 224.375,238.329 226.332,236.793 228.237 C 235.257 230.141,234.000 231.842,234.000 232.017 C 234.000 232.191,233.055 233.511,231.900 234.949 C 230.745 236.388,229.350 238.218,228.800 239.015 C 228.250 239.813,226.989 241.486,225.998 242.733 C 225.007 243.980,223.660 245.810,223.004 246.800 C 221.251 249.446,219.470 251.756,218.900 252.120 C 218.305 252.500,218.227 255.046,218.799 255.400 C 219.514 255.841,224.630 256.113,226.896 255.830 C 228.950 255.574,229.215 255.414,230.653 253.560 C 231.504 252.464,233.100 250.412,234.200 249.001 C 235.300 247.590,236.650 245.785,237.200 244.991 C 237.750 244.196,239.100 242.396,240.200 240.991 C 241.300 239.585,242.650 237.786,243.200 236.992 C 243.750 236.199,245.010 234.528,246.000 233.280 C 246.990 232.032,248.430 230.089,249.200 228.962 C 249.970 227.836,251.374 225.943,252.320 224.757 C 254.107 222.515,257.561 217.923,261.000 213.218 C 264.442 208.508,267.899 203.879,269.527 201.800 C 270.388 200.700,271.559 199.080,272.129 198.200 C 272.699 197.320,274.343 195.081,275.783 193.224 C 277.222 191.368,278.400 189.703,278.400 189.524 C 278.400 189.346,278.715 188.852,279.100 188.427 C 280.682 186.679,284.899 180.512,285.921 178.450 C 286.207 177.873,286.613 177.130,286.823 176.800 C 287.228 176.163,288.067 174.440,289.267 171.774 C 292.092 165.504,288.359 154.532,282.676 152.398 C 281.974 152.134,280.387 151.487,279.150 150.959 C 277.912 150.432,276.410 150.000,275.812 150.000 C 275.214 150.000,273.526 149.654,272.062 149.231 C 268.883 148.312,261.679 148.003,253.400 148.430 M215.942 258.451 C 214.467 258.991,213.618 265.744,214.792 267.600 C 215.427 268.605,328.996 268.709,330.105 267.705 C 331.227 266.690,330.991 259.421,329.808 258.556 C 328.876 257.875,217.794 257.772,215.942 258.451 M216.000 275.716 C 213.598 276.825,213.622 284.170,216.031 285.416 C 217.005 285.920,224.842 286.000,273.118 286.000 L 329.076 286.000 329.838 285.159 C 331.102 283.763,331.195 277.472,329.971 276.169 L 329.061 275.200 273.030 275.227 C 231.568 275.247,216.740 275.374,216.000 275.716 M216.000 292.278 C 214.433 292.838,213.543 300.183,214.880 301.520 C 215.518 302.158,328.836 302.223,330.026 301.586 C 331.202 300.957,331.181 293.981,330.000 292.800 C 329.224 292.024,218.133 291.515,216.000 292.278 " stroke="none" fill="#e7e4df" fill-rule="evenodd"></path><path id="SvgjsPath1000" d="M0.000 200.000 L 0.000 400.000 200.000 400.000 L 400.000 400.000 400.000 200.000 L 400.000 0.000 200.000 0.000 L 0.000 0.000 0.000 200.000 M272.815 98.393 C 276.014 98.601,279.254 99.023,280.015 99.332 C 280.777 99.641,282.840 100.002,284.600 100.134 C 286.360 100.266,288.831 100.740,290.090 101.187 C 291.350 101.634,292.930 102.000,293.603 102.000 C 294.276 102.000,295.715 102.450,296.800 103.000 C 297.885 103.550,299.094 104.002,299.487 104.004 C 299.879 104.006,301.163 104.456,302.340 105.004 C 303.517 105.552,304.777 106.003,305.140 106.006 C 305.503 106.009,306.186 106.234,306.658 106.506 C 307.130 106.778,309.067 107.900,310.963 109.000 C 312.860 110.100,315.228 111.413,316.225 111.917 C 318.203 112.916,329.995 124.325,330.007 125.250 C 330.014 125.742,331.200 127.740,333.013 130.312 C 334.403 132.284,335.885 135.522,336.146 137.155 C 336.298 138.100,336.751 139.532,337.154 140.337 C 337.558 141.142,338.012 142.610,338.164 143.600 C 338.316 144.590,338.733 145.847,339.091 146.394 C 340.620 148.730,340.630 173.355,339.103 176.777 C 338.667 177.754,338.181 179.464,338.024 180.577 C 337.867 181.689,337.347 183.317,336.869 184.194 C 336.391 185.071,336.000 186.082,336.000 186.440 C 336.000 186.799,335.669 187.521,335.264 188.046 C 334.859 188.571,334.326 189.593,334.078 190.319 C 333.831 191.044,333.262 192.103,332.814 192.673 C 332.366 193.242,332.000 194.022,332.000 194.405 C 332.000 194.788,331.702 195.349,331.338 195.651 C 330.974 195.953,330.424 196.740,330.116 197.400 C 329.374 198.990,328.011 201.185,326.900 202.579 C 326.405 203.200,326.000 203.858,326.000 204.042 C 326.000 204.371,323.629 208.009,323.160 208.400 C 323.028 208.510,322.684 209.050,322.397 209.600 C 322.109 210.150,321.090 211.680,320.133 213.000 C 319.175 214.320,317.730 216.390,316.922 217.600 C 316.114 218.810,315.258 219.996,315.020 220.235 C 314.781 220.475,313.870 221.733,312.993 223.033 C 312.117 224.332,311.220 225.592,311.000 225.833 C 310.780 226.074,309.610 227.662,308.400 229.362 C 307.190 231.063,305.300 233.567,304.200 234.927 C 303.100 236.287,301.580 238.300,300.821 239.400 C 300.063 240.500,298.225 242.930,296.737 244.800 C 295.249 246.670,292.989 249.516,291.716 251.124 C 288.355 255.368,287.742 255.728,283.526 255.929 C 276.131 256.283,275.793 254.231,282.016 246.776 C 283.015 245.579,284.363 243.790,285.011 242.800 C 285.659 241.810,287.010 240.010,288.015 238.800 C 289.019 237.590,290.368 235.790,291.012 234.800 C 291.657 233.810,292.928 232.100,293.837 231.000 C 294.747 229.900,295.710 228.581,295.977 228.068 C 296.244 227.556,296.763 226.765,297.131 226.311 C 297.499 225.857,298.255 224.927,298.812 224.243 C 299.368 223.559,300.357 222.190,301.009 221.200 C 301.661 220.210,303.051 218.280,304.097 216.911 C 305.144 215.543,306.000 214.247,306.000 214.032 C 306.000 213.817,306.405 213.186,306.900 212.630 C 307.395 212.074,308.211 211.030,308.712 210.309 C 309.214 209.589,310.064 208.370,310.602 207.600 C 311.140 206.830,311.744 205.840,311.944 205.400 C 312.144 204.960,312.689 204.257,313.154 203.838 C 313.619 203.419,314.010 202.879,314.022 202.638 C 314.034 202.397,314.749 201.210,315.610 200.000 C 316.472 198.790,317.490 197.170,317.872 196.400 C 318.254 195.630,318.869 194.640,319.239 194.200 C 319.609 193.760,320.457 192.367,321.124 191.104 C 321.790 189.841,322.710 188.332,323.168 187.750 C 323.626 187.168,324.000 186.437,324.000 186.125 C 324.000 185.813,324.450 184.895,325.000 184.086 C 325.550 183.277,326.000 182.380,326.000 182.094 C 326.000 181.808,326.450 180.685,327.000 179.600 C 327.550 178.515,328.002 177.036,328.004 176.313 C 328.006 175.591,328.450 174.100,328.991 173.000 C 330.397 170.141,330.520 154.174,329.158 151.200 C 328.705 150.210,328.238 148.410,328.121 147.200 C 328.004 145.990,327.592 144.445,327.207 143.767 C 326.822 143.090,326.280 141.830,326.003 140.967 C 325.726 140.105,325.277 139.130,325.006 138.800 C 324.735 138.470,324.333 137.660,324.112 137.000 C 323.584 135.420,318.244 128.013,316.758 126.800 C 316.624 126.690,315.829 126.060,314.992 125.400 C 314.155 124.740,312.983 123.750,312.389 123.200 C 310.520 121.473,309.572 120.769,308.469 120.293 C 307.881 120.039,306.891 119.419,306.269 118.916 C 305.647 118.412,304.904 118.000,304.618 118.000 C 304.332 118.000,303.882 117.740,303.618 117.422 C 303.354 117.104,302.207 116.541,301.069 116.171 C 299.931 115.800,298.718 115.252,298.374 114.953 C 298.029 114.654,297.129 114.294,296.374 114.152 C 295.618 114.011,294.444 113.562,293.765 113.155 C 293.086 112.748,291.355 112.249,289.918 112.045 C 288.481 111.842,286.703 111.364,285.966 110.983 C 285.079 110.524,283.065 110.181,280.001 109.968 C 277.457 109.792,274.863 109.452,274.236 109.214 C 270.905 107.947,251.744 107.934,247.600 109.195 C 246.830 109.429,243.860 109.784,241.000 109.983 C 237.725 110.211,234.861 110.652,233.264 111.173 C 231.870 111.628,229.920 112.000,228.932 112.000 C 227.943 112.000,225.844 112.432,224.267 112.959 C 222.690 113.487,220.518 114.027,219.440 114.160 C 218.362 114.293,216.930 114.675,216.258 115.011 C 213.950 116.162,212.032 113.063,212.010 108.144 C 211.996 105.245,212.731 104.499,216.047 104.041 C 217.503 103.840,219.242 103.392,219.911 103.046 C 220.580 102.700,222.629 102.237,224.464 102.018 C 226.299 101.799,228.610 101.330,229.600 100.976 C 230.590 100.623,233.399 100.182,235.843 99.998 C 238.286 99.813,241.076 99.449,242.043 99.188 C 246.312 98.038,261.343 97.650,272.815 98.393 M81.200 106.792 C 81.991 107.291,82.331 300.519,81.543 301.469 C 81.188 301.896,80.053 301.999,76.649 301.913 L 72.217 301.800 71.905 299.931 C 71.490 297.456,71.706 107.545,72.124 106.900 C 72.514 106.296,80.270 106.204,81.200 106.792 M97.986 107.174 C 98.624 108.367,98.559 300.881,97.920 301.520 C 96.840 302.600,88.834 302.141,88.390 300.974 C 87.824 299.485,87.859 109.624,88.425 108.134 C 89.037 106.525,89.379 106.413,93.686 106.406 C 97.122 106.401,97.620 106.490,97.986 107.174 M114.675 106.714 C 114.936 106.880,115.341 107.519,115.575 108.134 C 116.223 109.839,116.169 300.871,115.520 301.520 C 114.720 302.320,106.637 302.167,105.949 301.339 C 105.096 300.310,104.925 109.833,105.776 107.797 L 106.359 106.400 110.280 106.406 C 112.436 106.409,114.414 106.548,114.675 106.714 M131.901 181.760 C 131.974 235.749,132.126 257.070,132.443 257.451 C 132.801 257.883,139.052 258.002,165.874 258.091 C 198.004 258.197,198.880 258.220,199.432 258.976 C 200.184 260.004,200.240 267.398,199.500 267.876 C 199.225 268.054,184.066 268.290,165.813 268.400 L 132.625 268.600 132.273 270.380 C 132.042 271.550,132.077 272.678,132.374 273.671 L 132.827 275.182 165.752 275.291 C 204.194 275.418,200.126 274.780,199.934 280.658 C 199.746 286.409,203.801 285.783,165.908 285.911 C 129.502 286.035,132.000 285.809,132.000 288.969 C 132.000 292.246,129.262 292.000,165.706 292.000 C 187.514 292.000,198.711 292.138,199.226 292.414 C 200.159 292.913,200.408 300.632,199.520 301.520 C 198.766 302.274,123.072 302.210,122.446 301.455 C 121.905 300.803,121.990 107.725,122.532 106.887 C 122.776 106.509,124.034 106.404,127.332 106.487 L 131.800 106.600 131.901 181.760 M269.600 115.200 C 272.570 115.632,276.620 115.992,278.600 116.001 C 281.379 116.013,282.838 116.242,285.000 117.007 C 286.540 117.551,288.341 117.997,289.003 117.998 C 289.665 117.999,291.015 118.428,292.003 118.952 C 292.991 119.475,294.564 120.031,295.498 120.187 C 296.432 120.342,297.303 120.644,297.435 120.856 C 297.566 121.069,298.602 121.679,299.737 122.212 C 300.872 122.745,302.160 123.408,302.600 123.686 C 303.040 123.964,304.163 124.666,305.095 125.247 C 310.084 128.354,317.092 136.053,318.212 139.659 C 318.373 140.176,318.841 141.078,319.252 141.662 C 319.664 142.246,320.000 142.926,320.000 143.174 C 320.000 143.421,320.450 144.693,321.000 146.000 C 321.550 147.307,322.000 148.893,322.000 149.525 C 322.000 150.158,322.367 151.738,322.815 153.037 C 323.808 155.919,324.314 165.371,323.659 168.800 C 322.965 172.430,321.950 176.102,321.170 177.800 C 320.766 178.680,320.238 180.061,319.997 180.868 C 319.756 181.675,319.310 182.543,319.005 182.796 C 318.701 183.048,318.340 183.764,318.203 184.386 C 318.066 185.008,317.615 185.824,317.200 186.200 C 316.785 186.576,316.335 187.386,316.200 188.000 C 316.065 188.614,315.621 189.419,315.214 189.787 C 314.806 190.156,314.255 190.985,313.988 191.629 C 313.721 192.273,313.372 192.800,313.212 192.800 C 313.052 192.800,312.597 193.520,312.200 194.400 C 311.803 195.280,311.348 196.000,311.189 196.000 C 311.030 196.000,310.651 196.495,310.346 197.100 C 309.745 198.294,307.554 201.676,307.171 202.000 C 307.041 202.110,306.086 203.460,305.049 205.000 C 303.381 207.475,301.575 210.048,298.173 214.800 C 297.621 215.570,296.322 217.393,295.285 218.852 C 294.248 220.310,292.719 222.380,291.887 223.452 C 290.250 225.561,286.967 229.996,286.000 231.406 C 285.670 231.887,285.042 232.803,284.604 233.440 C 283.529 235.006,281.330 237.916,280.707 238.598 C 280.428 238.903,279.750 239.796,279.200 240.583 C 278.650 241.371,277.068 243.496,275.684 245.307 C 274.300 247.118,272.862 249.050,272.488 249.600 C 268.694 255.179,267.935 255.718,263.583 255.927 C 256.676 256.257,255.474 254.604,259.273 250.000 C 260.904 248.023,260.985 247.915,262.147 246.169 C 264.023 243.351,264.548 242.624,266.025 240.800 C 266.827 239.810,267.703 238.581,267.973 238.068 C 268.449 237.161,268.696 236.829,270.821 234.243 C 271.383 233.559,272.516 232.010,273.339 230.800 C 274.161 229.590,275.373 227.880,276.031 227.000 C 277.099 225.572,278.076 224.193,280.000 221.402 C 280.790 220.255,284.006 215.886,285.802 213.519 C 287.774 210.919,290.000 207.580,290.000 207.222 C 290.000 207.058,290.372 206.587,290.826 206.176 C 291.281 205.765,292.496 204.189,293.526 202.675 C 294.557 201.160,295.760 199.423,296.200 198.813 C 296.980 197.733,300.259 193.002,301.338 191.400 C 301.635 190.960,302.572 189.520,303.422 188.200 C 304.272 186.880,305.119 185.620,305.305 185.400 C 305.715 184.914,306.872 182.785,307.942 180.544 C 308.378 179.633,308.924 178.771,309.156 178.627 C 309.388 178.484,309.781 177.615,310.028 176.697 C 310.275 175.779,310.820 174.593,311.239 174.060 C 311.657 173.528,312.000 172.618,312.000 172.038 C 312.000 171.458,312.376 169.638,312.835 167.992 C 313.745 164.734,313.733 164.366,312.456 156.600 C 312.017 153.928,311.297 151.097,310.833 150.215 C 310.375 149.344,309.997 148.264,309.993 147.815 C 309.986 147.090,309.065 145.483,306.897 142.414 C 305.812 140.878,299.152 134.401,298.649 134.393 C 298.402 134.389,297.408 133.849,296.440 133.193 C 295.472 132.537,294.371 132.000,293.994 132.000 C 293.617 132.000,292.872 131.657,292.340 131.239 C 291.807 130.820,290.624 130.276,289.709 130.029 C 288.795 129.783,287.271 129.230,286.323 128.800 C 285.375 128.369,284.128 128.014,283.552 128.009 C 282.976 128.004,281.356 127.624,279.952 127.165 C 274.126 125.260,245.022 125.262,238.601 127.169 C 237.062 127.626,234.932 128.000,233.868 128.000 C 232.805 128.000,230.644 128.432,229.067 128.959 C 227.490 129.487,225.384 130.018,224.388 130.140 C 223.391 130.261,221.797 130.709,220.846 131.135 C 217.753 132.520,216.036 131.270,215.988 127.600 C 215.975 126.610,215.734 125.153,215.451 124.362 C 214.590 121.953,216.867 120.018,220.597 119.991 C 221.259 119.986,222.595 119.622,223.566 119.181 C 224.538 118.740,226.878 118.217,228.766 118.018 C 230.655 117.820,232.920 117.352,233.800 116.979 C 234.847 116.536,237.219 116.197,240.662 115.998 C 243.556 115.831,246.121 115.572,246.363 115.423 C 248.249 114.257,262.192 114.123,269.600 115.200 M276.951 133.121 C 278.024 133.605,279.464 134.008,280.151 134.018 C 280.838 134.027,282.120 134.312,283.000 134.651 C 283.880 134.990,285.733 135.591,287.117 135.987 C 288.502 136.383,289.956 136.998,290.349 137.354 C 290.742 137.709,291.328 138.000,291.651 138.000 C 292.536 138.000,296.703 141.204,299.267 143.856 C 302.161 146.849,302.731 147.788,305.188 153.600 C 307.213 158.393,307.077 170.150,304.942 174.800 C 302.796 179.473,301.767 181.441,300.900 182.531 C 300.405 183.153,300.000 183.893,300.000 184.176 C 300.000 184.655,298.460 186.893,297.025 188.500 C 296.681 188.885,296.400 189.355,296.400 189.545 C 296.400 189.735,295.905 190.537,295.300 191.329 C 294.695 192.120,293.786 193.359,293.280 194.084 C 292.774 194.808,291.514 196.553,290.480 197.961 C 289.446 199.370,288.330 200.916,288.000 201.398 C 286.277 203.910,285.110 205.557,284.031 207.000 C 283.373 207.880,282.157 209.590,281.329 210.800 C 280.501 212.010,278.963 214.044,277.912 215.321 C 276.860 216.597,276.000 217.800,276.000 217.994 C 276.000 218.188,275.145 219.437,274.100 220.770 C 272.205 223.186,271.092 224.695,269.200 227.412 C 268.650 228.202,267.590 229.602,266.845 230.524 C 266.099 231.446,265.035 232.920,264.480 233.800 C 263.926 234.680,262.736 236.334,261.836 237.475 C 260.936 238.616,259.750 240.199,259.200 240.992 C 258.650 241.786,257.300 243.584,256.200 244.989 C 254.028 247.762,250.945 251.964,250.020 253.414 C 248.885 255.190,247.274 255.767,242.984 255.931 C 238.664 256.096,238.307 255.961,237.807 253.968 C 237.544 252.923,241.551 247.076,248.885 237.800 C 249.771 236.680,250.859 235.135,251.800 233.661 C 252.020 233.317,253.010 232.007,254.000 230.751 C 254.990 229.494,256.250 227.813,256.800 227.015 C 257.350 226.218,258.745 224.388,259.900 222.949 C 261.055 221.511,262.000 220.208,262.000 220.054 C 262.000 219.756,263.110 218.271,264.880 216.202 C 265.475 215.507,266.645 213.943,267.480 212.726 C 268.316 211.509,270.116 209.002,271.481 207.156 C 272.845 205.310,274.465 203.117,275.081 202.283 C 275.696 201.449,276.473 200.459,276.807 200.083 C 277.140 199.707,278.130 198.320,279.005 197.000 C 279.880 195.680,280.801 194.420,281.051 194.200 C 281.301 193.980,282.161 192.810,282.963 191.600 C 284.608 189.117,285.362 188.046,286.800 186.155 C 287.350 185.432,288.250 184.084,288.800 183.159 C 289.350 182.234,290.292 180.740,290.893 179.839 C 291.494 178.938,291.989 178.053,291.993 177.873 C 291.997 177.694,292.450 176.957,293.000 176.236 C 293.550 175.514,294.000 174.704,294.000 174.433 C 294.000 174.163,294.495 173.100,295.100 172.071 C 296.167 170.256,296.199 170.032,296.150 164.600 L 296.100 159.000 294.630 156.200 C 292.843 152.798,291.487 150.874,290.296 150.049 C 289.803 149.707,289.220 149.279,289.000 149.097 C 287.806 148.108,284.141 146.000,283.613 145.997 C 283.276 145.996,282.463 145.641,281.806 145.208 C 281.150 144.775,279.800 144.316,278.806 144.187 C 277.813 144.058,275.148 143.498,272.885 142.941 C 267.681 141.662,250.653 141.676,246.200 142.964 C 244.880 143.345,241.910 143.809,239.600 143.994 C 237.290 144.178,234.252 144.706,232.848 145.165 C 231.444 145.624,229.605 146.000,228.760 146.000 C 227.915 146.000,226.240 146.450,225.037 147.000 C 221.273 148.722,220.542 148.446,219.734 145.000 C 219.476 143.900,219.031 142.227,218.745 141.283 C 218.396 140.130,218.354 139.362,218.617 138.946 C 219.137 138.122,225.379 136.039,227.400 136.015 C 228.280 136.005,230.260 135.551,231.800 135.007 C 233.340 134.462,235.256 134.013,236.057 134.008 C 236.859 134.004,238.860 133.722,240.504 133.382 C 248.515 131.725,273.455 131.547,276.951 133.121 M272.062 149.231 C 273.526 149.654,275.214 150.000,275.812 150.000 C 276.410 150.000,277.912 150.432,279.150 150.959 C 280.387 151.487,281.974 152.134,282.676 152.398 C 288.359 154.532,292.092 165.504,289.267 171.774 C 288.067 174.440,287.228 176.163,286.823 176.800 C 286.613 177.130,286.207 177.873,285.921 178.450 C 284.899 180.512,280.682 186.679,279.100 188.427 C 278.715 188.852,278.400 189.346,278.400 189.524 C 278.400 189.703,277.222 191.368,275.783 193.224 C 274.343 195.081,272.699 197.320,272.129 198.200 C 271.559 199.080,270.388 200.700,269.527 201.800 C 267.899 203.879,264.442 208.508,261.000 213.218 C 257.561 217.923,254.107 222.515,252.320 224.757 C 251.374 225.943,249.970 227.836,249.200 228.962 C 248.430 230.089,246.990 232.032,246.000 233.280 C 245.010 234.528,243.750 236.199,243.200 236.992 C 242.650 237.786,241.300 239.585,240.200 240.991 C 239.100 242.396,237.750 244.196,237.200 244.991 C 236.650 245.785,235.300 247.590,234.200 249.001 C 233.100 250.412,231.504 252.464,230.653 253.560 C 229.215 255.414,228.950 255.574,226.896 255.830 C 224.630 256.113,219.514 255.841,218.799 255.400 C 218.227 255.046,218.305 252.500,218.900 252.120 C 219.470 251.756,221.251 249.446,223.004 246.800 C 223.660 245.810,225.007 243.980,225.998 242.733 C 226.989 241.486,228.250 239.813,228.800 239.015 C 229.350 238.218,230.745 236.388,231.900 234.949 C 233.055 233.511,234.000 232.191,234.000 232.017 C 234.000 231.842,235.257 230.141,236.793 228.237 C 238.329 226.332,239.799 224.375,240.060 223.887 C 240.321 223.399,241.664 221.612,243.045 219.915 C 244.426 218.219,245.770 216.419,246.032 215.915 C 246.294 215.412,247.260 214.100,248.178 213.000 C 249.095 211.900,250.466 210.102,251.223 209.004 C 251.980 207.905,253.715 205.617,255.078 203.919 C 256.440 202.221,257.772 200.419,258.037 199.915 C 258.302 199.412,259.347 197.976,260.360 196.725 C 261.372 195.474,262.650 193.795,263.200 192.992 C 263.750 192.190,265.016 190.514,266.012 189.267 C 267.009 188.020,268.359 186.187,269.012 185.192 C 269.666 184.198,270.975 182.398,271.922 181.192 C 281.125 169.473,282.197 163.756,275.800 160.513 C 273.931 159.566,263.724 159.062,256.041 159.538 C 251.949 159.791,246.890 160.064,244.800 160.145 C 242.393 160.237,240.413 160.542,239.400 160.977 C 238.520 161.355,236.238 161.814,234.328 161.998 C 232.419 162.182,229.653 162.739,228.183 163.236 C 224.531 164.469,222.779 162.975,222.171 158.110 C 221.660 154.018,223.170 152.620,228.780 151.991 C 230.441 151.804,232.601 151.359,233.580 151.000 C 234.566 150.639,237.598 150.198,240.380 150.010 C 243.141 149.823,245.940 149.457,246.600 149.195 C 249.790 147.931,267.652 147.956,272.062 149.231 M329.808 258.556 C 330.991 259.421,331.227 266.690,330.105 267.705 C 328.996 268.709,215.427 268.605,214.792 267.600 C 213.618 265.744,214.467 258.991,215.942 258.451 C 217.794 257.772,328.876 257.875,329.808 258.556 M329.971 276.169 C 331.195 277.472,331.102 283.763,329.838 285.159 L 329.076 286.000 273.118 286.000 C 207.411 286.000,214.410 286.715,214.412 280.000 C 214.413 274.752,208.196 275.258,273.030 275.227 L 329.061 275.200 329.971 276.169 M330.000 292.800 C 331.181 293.981,331.202 300.957,330.026 301.586 C 328.836 302.223,215.518 302.158,214.880 301.520 C 213.543 300.183,214.433 292.838,216.000 292.278 C 218.133 291.515,329.224 292.024,330.000 292.800 " stroke="none" fill="#6c344c" fill-rule="evenodd"></path></g></svg><style>@media (prefers-color-scheme: light) { :root { filter: none; } }
</style></svg>